<svg width="15" height="15" viewBox="0 0 15 15" fill="none" xmlns="http://www.w3.org/2000/svg">
<g filter="url(#filter0_i_251_1616)">
<path d="M0 7.5C0 3.35742 3.35742 0 7.5 0C11.6426 0 15 3.35742 15 7.5C15 11.6426 11.6426 15 7.5 15C3.35742 15 0 11.6426 0 7.5ZM4.80762 9.53613C4.6377 9.33984 4.3418 9.31934 4.14551 9.48926C3.94922 9.65918 3.92871 9.95508 4.09863 10.1514C4.74902 10.9014 5.88574 11.7188 7.47363 11.7188C9.11426 11.7188 10.248 10.9014 10.9014 10.1514C11.0713 9.95508 11.0508 9.65918 10.8545 9.48926C10.6582 9.31934 10.3623 9.33984 10.1924 9.53613C9.66504 10.1426 8.77148 10.7812 7.47363 10.7812C6.22852 10.7812 5.33203 10.1426 4.80762 9.53613ZM6.63574 6.78516C6.73242 6.75293 6.79688 6.66211 6.79688 6.5625C6.79688 6.03809 6.60059 5.51953 6.31055 5.13281C6.02344 4.75195 5.61035 4.45312 5.15625 4.45312C4.70215 4.45312 4.28906 4.75195 4.00195 5.13281C3.71191 5.51953 3.51562 6.03809 3.51562 6.5625C3.51562 6.66211 3.58008 6.75293 3.67676 6.78516C3.77051 6.81738 3.87598 6.78516 3.9375 6.70312L3.94336 6.69434C3.94922 6.68848 3.92871 6.67969 3.96387 6.66797C3.95801 6.64453 4.01074 6.6123 4.0459 6.57129C4.11914 6.48633 4.22168 6.37793 4.34473 6.24316C4.60254 6.04102 4.89844 5.85938 5.15625 5.85938C5.41406 5.85938 5.70996 6.04102 5.96777 6.24316C6.09082 6.37793 6.19336 6.48633 6.2666 6.57129C6.30176 6.6123 6.32812 6.64453 6.34863 6.66797C6.35742 6.67969 6.36328 6.68848 6.36914 6.69434L6.375 6.70312C6.43652 6.78516 6.54199 6.81738 6.63574 6.78516ZM11.0625 6.70312C11.124 6.78516 11.2295 6.81738 11.3232 6.78516C11.4199 6.75293 11.4844 6.66211 11.4844 6.5625C11.4844 6.03809 11.2881 5.51953 10.998 5.13281C10.7109 4.75195 10.2979 4.45312 9.84375 4.45312C9.38965 4.45312 8.97656 4.75195 8.68945 5.13281C8.39941 5.51953 8.20312 6.03809 8.20312 6.5625C8.20312 6.66211 8.26758 6.75293 8.36426 6.78516C8.45801 6.81738 8.56348 6.78516 8.625 6.70312L8.63086 6.69434C8.63672 6.68848 8.61621 6.67969 8.65137 6.66797C8.64551 6.64453 8.69824 6.6123 8.7334 6.57129C8.80664 6.48633 8.90918 6.37793 9.03223 6.24316C9.29004 6.04102 9.58594 5.85938 9.84375 5.85938C10.1016 5.85938 10.3975 6.04102 10.6553 6.24316C10.7783 6.37793 10.8809 6.48633 10.9541 6.57129C10.9893 6.6123 11.0156 6.64453 11.0361 6.66797C11.0449 6.67969 11.0508 6.68848 11.0566 6.69434L11.0625 6.70312Z" fill="#3AE80E"/>
</g>
<defs>
<filter id="filter0_i_251_1616" x="0" y="0" width="15" height="17" filterUnits="userSpaceOnUse" color-interpolation-filters="sRGB">
<feFlood flood-opacity="0" result="BackgroundImageFix"/>
<feBlend mode="normal" in="SourceGraphic" in2="BackgroundImageFix" result="shape"/>
<feColorMatrix in="SourceAlpha" type="matrix" values="0 0 0 0 0 0 0 0 0 0 0 0 0 0 0 0 0 0 127 0" result="hardAlpha"/>
<feOffset dy="2"/>
<feGaussianBlur stdDeviation="1"/>
<feComposite in2="hardAlpha" operator="arithmetic" k2="-1" k3="1"/>
<feColorMatrix type="matrix" values="0 0 0 0 0 0 0 0 0 0 0 0 0 0 0 0 0 0 0.25 0"/>
<feBlend mode="normal" in2="shape" result="effect1_innerShadow_251_1616"/>
</filter>
</defs>
</svg>
