<svg width="15" height="15" viewBox="0 0 15 15" fill="none" xmlns="http://www.w3.org/2000/svg">
<g filter="url(#filter0_i_252_1623)">
<path d="M7.5 0C3.35685 0 0 3.35685 0 7.5C0 11.6431 3.35685 15 7.5 15C11.6431 15 15 11.6431 15 7.5C15 3.35685 11.6431 0 7.5 0ZM2.86089 4.86593L3.91633 4.71472L4.38508 3.75907C4.47278 3.58367 4.71774 3.58367 4.80544 3.75907L5.27419 4.71472L6.32964 4.86593C6.51714 4.89617 6.59879 5.12601 6.45968 5.26512L5.69153 6.00907L5.87298 7.06452C5.90323 7.25202 5.7127 7.39718 5.54032 7.30343L4.59677 6.81351L3.6502 7.30645C3.47782 7.4002 3.2873 7.25504 3.31754 7.06754L3.49899 6.0121L2.73085 5.26815C2.59173 5.12601 2.67339 4.89617 2.86089 4.86593ZM7.5 12.8226C5.66734 12.8226 3.43246 11.6643 3.15121 10.001C3.09073 9.64415 3.43246 9.35081 3.77722 9.45968C4.69052 9.75302 6.04839 9.91935 7.5 9.91935C8.95161 9.91935 10.3095 9.75302 11.2228 9.45968C11.5706 9.34778 11.9062 9.64415 11.8488 10.001C11.5675 11.6643 9.33266 12.8226 7.5 12.8226ZM12.2692 5.26512L11.501 6.00907L11.6825 7.06452C11.7127 7.25202 11.5222 7.39718 11.3498 7.30343L10.4032 6.81351L9.45665 7.30645C9.28427 7.4002 9.09375 7.25504 9.12399 7.06754L9.30544 6.0121L8.5373 5.26815C8.40121 5.12903 8.47984 4.89919 8.66734 4.86895L9.72278 4.71774L10.1915 3.7621C10.2792 3.58669 10.5242 3.58669 10.6119 3.7621L11.0806 4.71774L12.1361 4.86895C12.3266 4.89617 12.4083 5.12601 12.2692 5.26512Z" fill="#AD00FF"/>
</g>
<defs>
<filter id="filter0_i_252_1623" x="0" y="0" width="15" height="17" filterUnits="userSpaceOnUse" color-interpolation-filters="sRGB">
<feFlood flood-opacity="0" result="BackgroundImageFix"/>
<feBlend mode="normal" in="SourceGraphic" in2="BackgroundImageFix" result="shape"/>
<feColorMatrix in="SourceAlpha" type="matrix" values="0 0 0 0 0 0 0 0 0 0 0 0 0 0 0 0 0 0 127 0" result="hardAlpha"/>
<feOffset dy="2"/>
<feGaussianBlur stdDeviation="1"/>
<feComposite in2="hardAlpha" operator="arithmetic" k2="-1" k3="1"/>
<feColorMatrix type="matrix" values="0 0 0 0 0 0 0 0 0 0 0 0 0 0 0 0 0 0 0.25 0"/>
<feBlend mode="normal" in2="shape" result="effect1_innerShadow_252_1623"/>
</filter>
</defs>
</svg>
