<svg width="15" height="15" viewBox="0 0 15 15" fill="none" xmlns="http://www.w3.org/2000/svg">
<g filter="url(#filter0_i_258_1649)">
<path d="M0 7.5C0 3.35742 3.35742 0 7.5 0C11.6426 0 15 3.35742 15 7.5C15 11.6426 11.6426 15 7.5 15C3.35742 15 0 11.6426 0 7.5ZM4.66699 11.3877C5.02441 10.2363 6.14941 9.375 7.5 9.375C8.85059 9.375 9.97559 10.2363 10.333 11.3877C10.4092 11.6367 10.6729 11.7744 10.9189 11.6982C11.168 11.6221 11.3057 11.3584 11.2295 11.1123C10.7461 9.55371 9.25195 8.41113 7.5 8.41113C5.75098 8.41113 4.25391 9.55371 3.77051 11.1123C3.69434 11.3584 3.83203 11.6221 4.08105 11.6982C4.32715 11.7744 4.59082 11.6367 4.66699 11.3877ZM5.16797 5.15625C4.64941 5.15625 4.23047 5.5752 4.23047 6.09375C4.23047 6.6123 4.64941 7.03125 5.16797 7.03125C5.68359 7.03125 6.10547 6.6123 6.10547 6.09375C6.10547 5.5752 5.68359 5.15625 5.16797 5.15625ZM9.85547 7.03125C10.3711 7.03125 10.793 6.6123 10.793 6.09375C10.793 5.5752 10.3711 5.15625 9.85547 5.15625C9.33691 5.15625 8.91797 5.5752 8.91797 6.09375C8.91797 6.6123 9.33691 7.03125 9.85547 7.03125Z" fill="#94D607"/>
</g>
<defs>
<filter id="filter0_i_258_1649" x="0" y="0" width="15" height="17" filterUnits="userSpaceOnUse" color-interpolation-filters="sRGB">
<feFlood flood-opacity="0" result="BackgroundImageFix"/>
<feBlend mode="normal" in="SourceGraphic" in2="BackgroundImageFix" result="shape"/>
<feColorMatrix in="SourceAlpha" type="matrix" values="0 0 0 0 0 0 0 0 0 0 0 0 0 0 0 0 0 0 127 0" result="hardAlpha"/>
<feOffset dy="2"/>
<feGaussianBlur stdDeviation="1"/>
<feComposite in2="hardAlpha" operator="arithmetic" k2="-1" k3="1"/>
<feColorMatrix type="matrix" values="0 0 0 0 0 0 0 0 0 0 0 0 0 0 0 0 0 0 0.25 0"/>
<feBlend mode="normal" in2="shape" result="effect1_innerShadow_258_1649"/>
</filter>
</defs>
</svg>
