<svg width="19" height="15" viewBox="0 0 19 15" fill="none" xmlns="http://www.w3.org/2000/svg">
<g filter="url(#filter0_i_251_1619)">
<path fill-rule="evenodd" clip-rule="evenodd" d="M18.6 6.05662C18.1701 11.0814 15.002 14.1105 9.67993 15C9.85552 8.77321 13.9182 6.99876 18.6 6.05662ZM5.73076 6.91368C6.08042 4.04548 6.55117 1.87809 9.34238 0C11.3404 1.6151 12.3955 2.58509 12.8889 6.94616C11.4176 7.30662 10.1053 8.92946 9.32573 11.4093C8.57344 8.96968 7.3625 7.49845 5.73076 6.91368ZM13.8849 6.59344L13.3476 4.01609C14.2542 3.22092 15.83 2.78775 17.38 2.3716C17.4163 3.31993 17.2771 4.36262 17.1771 5.38985C15.9738 5.59561 14.8885 6.0133 13.8849 6.59344ZM4.75444 6.59344L5.2918 4.01609C4.38511 3.22092 2.80937 2.78775 1.25937 2.3716C1.22305 3.31993 1.3623 4.36262 1.46221 5.38985C2.66558 5.59561 3.75239 6.0133 4.75444 6.59344ZM0 6.05662C0.429883 11.0814 3.598 14.1105 8.92007 15C8.74448 8.77321 4.68179 6.99876 0 6.05662Z" fill="#FFC4C4"/>
</g>
<defs>
<filter id="filter0_i_251_1619" x="0" y="0" width="18.6001" height="17" filterUnits="userSpaceOnUse" color-interpolation-filters="sRGB">
<feFlood flood-opacity="0" result="BackgroundImageFix"/>
<feBlend mode="normal" in="SourceGraphic" in2="BackgroundImageFix" result="shape"/>
<feColorMatrix in="SourceAlpha" type="matrix" values="0 0 0 0 0 0 0 0 0 0 0 0 0 0 0 0 0 0 127 0" result="hardAlpha"/>
<feOffset dy="2"/>
<feGaussianBlur stdDeviation="1"/>
<feComposite in2="hardAlpha" operator="arithmetic" k2="-1" k3="1"/>
<feColorMatrix type="matrix" values="0 0 0 0 0 0 0 0 0 0 0 0 0 0 0 0 0 0 0.25 0"/>
<feBlend mode="normal" in2="shape" result="effect1_innerShadow_251_1619"/>
</filter>
</defs>
</svg>
