<svg width="15" height="15" viewBox="0 0 15 15" fill="none" xmlns="http://www.w3.org/2000/svg">
<g filter="url(#filter0_i_258_1653)">
<path d="M0 7.5C0 3.35742 3.35742 0 7.5 0C11.6426 0 15 3.35742 15 7.5C15 11.6426 11.6426 15 7.5 15C3.35742 15 0 11.6426 0 7.5ZM7.50879 9.7207C6.12012 9.7207 4.80762 9.51855 3.64746 9.16406C3.28711 9.05273 2.93555 9.36621 3.08203 9.71191C3.81152 11.4434 5.51953 12.6562 7.50879 12.6562C9.49805 12.6562 11.2031 11.4434 11.9355 9.71191C12.082 9.36621 11.7305 9.05273 11.3701 9.16406C10.207 9.51855 8.89746 9.7207 7.50879 9.7207ZM11.5312 6.9375C11.7393 6.78223 11.7803 6.48926 11.625 6.28125C10.7344 5.09473 8.95312 5.09473 8.0625 6.28125C7.90723 6.48926 7.94824 6.78223 8.15625 6.9375C8.36426 7.09277 8.65723 7.05176 8.8125 6.84375C9.32812 6.15527 10.3594 6.15527 10.875 6.84375C11.0303 7.05176 11.3232 7.09277 11.5312 6.9375ZM5.16797 7.03125C5.68359 7.03125 6.10547 6.6123 6.10547 6.09375C6.10547 5.5752 5.68359 5.15625 5.16797 5.15625C4.64941 5.15625 4.23047 5.5752 4.23047 6.09375C4.23047 6.6123 4.64941 7.03125 5.16797 7.03125Z" fill="#FA00FF"/>
</g>
<defs>
<filter id="filter0_i_258_1653" x="0" y="0" width="15" height="17" filterUnits="userSpaceOnUse" color-interpolation-filters="sRGB">
<feFlood flood-opacity="0" result="BackgroundImageFix"/>
<feBlend mode="normal" in="SourceGraphic" in2="BackgroundImageFix" result="shape"/>
<feColorMatrix in="SourceAlpha" type="matrix" values="0 0 0 0 0 0 0 0 0 0 0 0 0 0 0 0 0 0 127 0" result="hardAlpha"/>
<feOffset dy="2"/>
<feGaussianBlur stdDeviation="1"/>
<feComposite in2="hardAlpha" operator="arithmetic" k2="-1" k3="1"/>
<feColorMatrix type="matrix" values="0 0 0 0 0 0 0 0 0 0 0 0 0 0 0 0 0 0 0.25 0"/>
<feBlend mode="normal" in2="shape" result="effect1_innerShadow_258_1653"/>
</filter>
</defs>
</svg>
