<svg width="15" height="15" viewBox="0 0 15 15" fill="none" xmlns="http://www.w3.org/2000/svg">
<g filter="url(#filter0_i_252_1631)">
<path d="M7.5 0C3.35685 0 0 3.35685 0 7.5C0 11.6431 3.35685 15 7.5 15C11.6431 15 15 11.6431 15 7.5C15 3.35685 11.6431 0 7.5 0ZM4.1129 7.01613C4.1129 6.73488 4.2369 6.4869 4.43044 6.30847L3.49294 6.02722C3.23589 5.95161 3.09073 5.67944 3.16935 5.4254C3.24496 5.16835 3.51411 5.02621 3.77117 5.10181L6.19052 5.82762C6.44758 5.90323 6.59274 6.1754 6.51411 6.42944C6.4506 6.6381 6.26008 6.77419 6.05141 6.77419C6.03629 6.77419 6.01815 6.76815 6 6.76815C6.02117 6.8498 6.05141 6.92843 6.05141 7.01613C6.05141 7.55141 5.61895 7.98387 5.08367 7.98387C4.54839 7.98387 4.1129 7.55141 4.1129 7.01613ZM9.19355 11.6794C8.35282 10.6694 6.64718 10.6694 5.80343 11.6794C5.39516 12.1724 4.64819 11.5524 5.05948 11.0595C5.66431 10.3337 6.55343 9.91633 7.49698 9.91633C8.44052 9.91633 9.32964 10.3337 9.93448 11.0595C10.3518 11.5585 9.59879 12.1663 9.19355 11.6794ZM11.5101 6.02722L10.5726 6.30847C10.7631 6.48387 10.8901 6.73488 10.8901 7.01613C10.8901 7.55141 10.4577 7.98387 9.92238 7.98387C9.3871 7.98387 8.95464 7.55141 8.95464 7.01613C8.95464 6.92843 8.98185 6.84677 9.00605 6.76815C8.9879 6.77117 8.97278 6.77419 8.95464 6.77419C8.74597 6.77419 8.55544 6.6381 8.49193 6.42944C8.41633 6.17238 8.56149 5.90323 8.81552 5.82762L11.2349 5.10181C11.4889 5.02621 11.7611 5.17137 11.8367 5.4254C11.9123 5.68246 11.7671 5.95161 11.5101 6.02722Z" fill="#E22900"/>
</g>
<defs>
<filter id="filter0_i_252_1631" x="0" y="0" width="15" height="17" filterUnits="userSpaceOnUse" color-interpolation-filters="sRGB">
<feFlood flood-opacity="0" result="BackgroundImageFix"/>
<feBlend mode="normal" in="SourceGraphic" in2="BackgroundImageFix" result="shape"/>
<feColorMatrix in="SourceAlpha" type="matrix" values="0 0 0 0 0 0 0 0 0 0 0 0 0 0 0 0 0 0 127 0" result="hardAlpha"/>
<feOffset dy="2"/>
<feGaussianBlur stdDeviation="1"/>
<feComposite in2="hardAlpha" operator="arithmetic" k2="-1" k3="1"/>
<feColorMatrix type="matrix" values="0 0 0 0 0 0 0 0 0 0 0 0 0 0 0 0 0 0 0.25 0"/>
<feBlend mode="normal" in2="shape" result="effect1_innerShadow_252_1631"/>
</filter>
</defs>
</svg>
