<svg width="15" height="15" viewBox="0 0 15 15" fill="none" xmlns="http://www.w3.org/2000/svg">
<g filter="url(#filter0_i_252_1629)">
<path d="M7.5 0C3.35685 0 0 3.35685 0 7.5C0 11.6431 3.35685 15 7.5 15C11.6431 15 15 11.6431 15 7.5C15 3.35685 11.6431 0 7.5 0ZM8.52218 4.89012L10.9415 3.43851C11.2923 3.22984 11.6673 3.67137 11.4073 3.98286L10.3911 5.20161L11.4073 6.42036C11.6704 6.73488 11.2893 7.17036 10.9415 6.96472L8.52218 5.5131C8.28931 5.37097 8.28931 5.03226 8.52218 4.89012ZM3.59274 3.98286C3.33266 3.67137 3.70766 3.22984 4.05847 3.43851L6.47782 4.89012C6.71371 5.03226 6.71371 5.37097 6.47782 5.5131L4.05847 6.96472C3.71069 7.17036 3.33266 6.73488 3.59274 6.42036L4.60887 5.20161L3.59274 3.98286ZM12.0635 9.0121C11.7944 11.1593 9.96169 12.8226 7.74194 12.8226H7.25806C5.03831 12.8226 3.20565 11.1593 2.93649 9.0121C2.9002 8.7248 3.12702 8.46774 3.41734 8.46774H11.5827C11.873 8.46774 12.0998 8.72177 12.0635 9.0121Z" fill="#A62289"/>
</g>
<defs>
<filter id="filter0_i_252_1629" x="0" y="0" width="15" height="17" filterUnits="userSpaceOnUse" color-interpolation-filters="sRGB">
<feFlood flood-opacity="0" result="BackgroundImageFix"/>
<feBlend mode="normal" in="SourceGraphic" in2="BackgroundImageFix" result="shape"/>
<feColorMatrix in="SourceAlpha" type="matrix" values="0 0 0 0 0 0 0 0 0 0 0 0 0 0 0 0 0 0 127 0" result="hardAlpha"/>
<feOffset dy="2"/>
<feGaussianBlur stdDeviation="1"/>
<feComposite in2="hardAlpha" operator="arithmetic" k2="-1" k3="1"/>
<feColorMatrix type="matrix" values="0 0 0 0 0 0 0 0 0 0 0 0 0 0 0 0 0 0 0.25 0"/>
<feBlend mode="normal" in2="shape" result="effect1_innerShadow_252_1629"/>
</filter>
</defs>
</svg>
