<svg width="15" height="15" viewBox="0 0 15 15" fill="none" xmlns="http://www.w3.org/2000/svg">
<g filter="url(#filter0_i_258_1643)">
<path d="M0 7.5C0 3.35742 3.35742 0 7.5 0C11.6426 0 15 3.35742 15 7.5C15 11.6426 11.6426 15 7.5 15C3.35742 15 0 11.6426 0 7.5ZM4.05176 10.667C3.87305 11.0098 3.75 11.3789 3.75 11.7188C3.75 11.8711 3.82617 12.0176 3.95215 12.1055C4.07812 12.1904 4.23926 12.2109 4.38281 12.1318L4.98633 11.9326C5.77441 11.6367 6.60938 11.4844 7.45312 11.4844H7.54688C8.39062 11.4844 9.22559 11.6367 10.0137 11.9326L10.6172 12.1318C10.7607 12.2109 10.9219 12.1904 11.0479 12.1055C11.1738 12.0176 11.25 11.8711 11.25 11.7188C11.25 11.3789 11.127 11.0098 10.9482 10.667C10.7637 10.3154 10.5 9.95508 10.1748 9.62988C9.53027 8.98535 8.5957 8.41113 7.5 8.41113C6.4043 8.41113 5.46973 8.98535 4.8252 9.62988C4.5 9.95508 4.23633 10.3154 4.05176 10.667ZM3.91113 4.29785C3.67969 4.17188 3.39844 4.3418 3.39844 4.60254C3.39844 4.68457 3.40137 4.76367 3.48047 4.82812L4.53516 6.09375L3.48047 7.35938C3.40137 7.42383 3.39844 7.50293 3.39844 7.58496C3.39844 7.8457 3.67969 8.01562 3.91113 7.88965L6.54492 6.48633C6.8584 6.31934 6.8584 5.86816 6.54492 5.70117L3.91113 4.29785ZM11.6016 4.60254C11.6016 4.3418 11.3203 4.17188 11.0889 4.29785L8.45508 5.70117C8.1416 5.86816 8.1416 6.31934 8.45508 6.48633L11.0889 7.88965C11.3203 8.01562 11.6016 7.8457 11.6016 7.58496C11.6016 7.50293 11.5723 7.42383 11.5195 7.35938L10.4648 6.09375L11.5195 4.82812C11.5723 4.76367 11.6016 4.68457 11.6016 4.60254Z" fill="#0FD7B3"/>
</g>
<defs>
<filter id="filter0_i_258_1643" x="0" y="0" width="15" height="17" filterUnits="userSpaceOnUse" color-interpolation-filters="sRGB">
<feFlood flood-opacity="0" result="BackgroundImageFix"/>
<feBlend mode="normal" in="SourceGraphic" in2="BackgroundImageFix" result="shape"/>
<feColorMatrix in="SourceAlpha" type="matrix" values="0 0 0 0 0 0 0 0 0 0 0 0 0 0 0 0 0 0 127 0" result="hardAlpha"/>
<feOffset dy="2"/>
<feGaussianBlur stdDeviation="1"/>
<feComposite in2="hardAlpha" operator="arithmetic" k2="-1" k3="1"/>
<feColorMatrix type="matrix" values="0 0 0 0 0 0 0 0 0 0 0 0 0 0 0 0 0 0 0.25 0"/>
<feBlend mode="normal" in2="shape" result="effect1_innerShadow_258_1643"/>
</filter>
</defs>
</svg>
