<svg width="15" height="15" viewBox="0 0 15 15" fill="none" xmlns="http://www.w3.org/2000/svg">
<g filter="url(#filter0_i_258_1651)">
<path d="M15 7.5C15 11.6426 11.6426 15 7.5 15C3.35742 15 0 11.6426 0 7.5C0 3.35742 3.35742 0 7.5 0C11.6426 0 15 3.35742 15 7.5ZM9.95801 10.9365C9.48633 10.4121 8.66309 9.84375 7.5 9.84375C6.33691 9.84375 5.51367 10.4121 5.04199 10.9365C4.86914 11.1299 4.88379 11.3994 5.07715 11.5986C5.27051 11.7715 5.54004 11.7568 5.73926 11.5635C6.08203 11.1826 6.66504 10.7812 7.47363 10.7812C8.33496 10.7812 8.91797 11.1826 9.26074 11.5635C9.43359 11.7568 9.72949 11.7715 9.92285 11.5986C10.1162 11.3994 10.1309 11.1299 9.95801 10.9365ZM5.16797 7.96875C5.68359 7.96875 6.10547 7.5498 6.10547 7.03125C6.10547 6.9873 6.10254 6.94336 6.09668 6.90234L6.41309 7.00781C6.65918 7.06348 6.92578 6.95508 7.00781 6.71191C7.06348 6.46582 6.95508 6.19922 6.71191 6.11719L3.89941 5.17969C3.65332 5.09766 3.38672 5.23242 3.30469 5.47559C3.22266 5.72168 3.35742 5.98828 3.60059 6.07031L4.50293 6.36914C4.33301 6.53906 4.23047 6.77344 4.23047 7.03125C4.23047 7.5498 4.64941 7.96875 5.16797 7.96875ZM10.5146 6.36328L11.3994 6.07031C11.6426 5.98828 11.751 5.72168 11.6953 5.47559C11.6133 5.23242 11.3467 5.09766 11.1006 5.17969L8.28809 6.11719C8.04492 6.19922 7.91016 6.46582 7.99219 6.71191C8.07422 6.95508 8.34082 7.06348 8.58691 7.00781L8.92676 6.89355C8.9209 6.9375 8.91797 6.98438 8.91797 7.03125C8.91797 7.5498 9.33691 7.96875 9.85547 7.96875C10.3711 7.96875 10.793 7.5498 10.793 7.03125C10.793 6.77051 10.6846 6.5332 10.5146 6.36328Z" fill="#F4BF00"/>
</g>
<defs>
<filter id="filter0_i_258_1651" x="0" y="0" width="15" height="17" filterUnits="userSpaceOnUse" color-interpolation-filters="sRGB">
<feFlood flood-opacity="0" result="BackgroundImageFix"/>
<feBlend mode="normal" in="SourceGraphic" in2="BackgroundImageFix" result="shape"/>
<feColorMatrix in="SourceAlpha" type="matrix" values="0 0 0 0 0 0 0 0 0 0 0 0 0 0 0 0 0 0 127 0" result="hardAlpha"/>
<feOffset dy="2"/>
<feGaussianBlur stdDeviation="1"/>
<feComposite in2="hardAlpha" operator="arithmetic" k2="-1" k3="1"/>
<feColorMatrix type="matrix" values="0 0 0 0 0 0 0 0 0 0 0 0 0 0 0 0 0 0 0.25 0"/>
<feBlend mode="normal" in2="shape" result="effect1_innerShadow_258_1651"/>
</filter>
</defs>
</svg>
