<svg width="15" height="15" viewBox="0 0 15 15" fill="none" xmlns="http://www.w3.org/2000/svg">
<g filter="url(#filter0_i_258_1647)">
<path d="M0 7.5C0 3.35742 3.35742 0 7.5 0C11.6426 0 15 3.35742 15 7.5C15 11.6426 11.6426 15 7.5 15C3.35742 15 0 11.6426 0 7.5ZM7.5 12.1875C8.53418 12.1875 9.375 11.3467 9.375 10.3125C9.375 9.27832 8.53418 8.4375 7.5 8.4375C6.46582 8.4375 5.625 9.27832 5.625 10.3125C5.625 11.3467 6.46582 12.1875 7.5 12.1875ZM2.9502 4.5498L4.02539 5.625L2.9502 6.7002C2.7668 6.88184 2.7668 7.18066 2.9502 7.3623C3.13184 7.54688 3.43066 7.54688 3.6123 7.3623L4.6875 6.28711L5.7627 7.3623C5.94434 7.54688 6.24316 7.54688 6.4248 7.3623C6.60938 7.18066 6.60938 6.88184 6.4248 6.7002L5.34961 5.625L6.4248 4.5498C6.60938 4.36816 6.60938 4.06934 6.4248 3.8877C6.24316 3.70312 5.94434 3.70312 5.7627 3.8877L4.6875 4.96289L3.6123 3.8877C3.43066 3.70312 3.13184 3.70312 2.9502 3.8877C2.7668 4.06934 2.7668 4.36816 2.9502 4.5498ZM8.5752 4.5498L9.65039 5.625L8.5752 6.7002C8.39062 6.88184 8.39062 7.18066 8.5752 7.3623C8.75684 7.54688 9.05566 7.54688 9.2373 7.3623L10.3125 6.28711L11.3877 7.3623C11.5693 7.54688 11.8682 7.54688 12.0498 7.3623C12.2344 7.18066 12.2344 6.88184 12.0498 6.7002L10.9746 5.625L12.0498 4.5498C12.2344 4.36816 12.2344 4.06934 12.0498 3.8877C11.8682 3.70312 11.5693 3.70312 11.3877 3.8877L10.3125 4.96289L9.2373 3.8877C9.05566 3.70312 8.75684 3.70312 8.5752 3.8877C8.39062 4.06934 8.39062 4.36816 8.5752 4.5498Z" fill="#3A8FBE"/>
</g>
<defs>
<filter id="filter0_i_258_1647" x="0" y="0" width="15" height="17" filterUnits="userSpaceOnUse" color-interpolation-filters="sRGB">
<feFlood flood-opacity="0" result="BackgroundImageFix"/>
<feBlend mode="normal" in="SourceGraphic" in2="BackgroundImageFix" result="shape"/>
<feColorMatrix in="SourceAlpha" type="matrix" values="0 0 0 0 0 0 0 0 0 0 0 0 0 0 0 0 0 0 127 0" result="hardAlpha"/>
<feOffset dy="2"/>
<feGaussianBlur stdDeviation="1"/>
<feComposite in2="hardAlpha" operator="arithmetic" k2="-1" k3="1"/>
<feColorMatrix type="matrix" values="0 0 0 0 0 0 0 0 0 0 0 0 0 0 0 0 0 0 0.25 0"/>
<feBlend mode="normal" in2="shape" result="effect1_innerShadow_258_1647"/>
</filter>
</defs>
</svg>
