<svg width="15" height="15" viewBox="0 0 15 15" fill="none" xmlns="http://www.w3.org/2000/svg">
<g filter="url(#filter0_i_258_1645)">
<path d="M0 7.5C0 3.35742 3.35742 0 7.5 0C11.6426 0 15 3.35742 15 7.5C15 11.6426 11.6426 15 7.5 15C3.35742 15 0 11.6426 0 7.5ZM5.625 10.7812C5.36719 10.7812 5.15625 10.9922 5.15625 11.25C5.15625 11.5078 5.36719 11.7188 5.625 11.7188H9.375C9.63281 11.7188 9.84375 11.5078 9.84375 11.25C9.84375 10.9922 9.63281 10.7812 9.375 10.7812H5.625ZM5.45508 4.85156C5.56055 5.00391 5.625 5.18848 5.625 5.39062C5.625 5.90918 5.20605 6.32812 4.6875 6.32812C4.16895 6.32812 3.75 5.90918 3.75 5.39062C3.75 5.18848 3.81445 5.00391 3.91992 4.85156C3.2666 5.14453 2.8125 5.77441 2.8125 6.5625C2.8125 7.59668 3.65332 8.4375 4.6875 8.4375C5.72168 8.4375 6.5625 7.59668 6.5625 6.5625C6.5625 5.77441 6.1084 5.14453 5.45508 4.85156ZM10.3125 8.4375C11.3467 8.4375 12.1875 7.59668 12.1875 6.5625C12.1875 5.77441 11.7334 5.14453 11.0801 4.85156C11.1855 5.00391 11.25 5.18848 11.25 5.39062C11.25 5.90918 10.8311 6.32812 10.3125 6.32812C9.79395 6.32812 9.375 5.90918 9.375 5.39062C9.375 5.18848 9.43945 5.00391 9.54492 4.85156C8.8916 5.14453 8.4375 5.77441 8.4375 6.5625C8.4375 7.59668 9.27832 8.4375 10.3125 8.4375Z" fill="#E2F316"/>
</g>
<defs>
<filter id="filter0_i_258_1645" x="0" y="0" width="15" height="17" filterUnits="userSpaceOnUse" color-interpolation-filters="sRGB">
<feFlood flood-opacity="0" result="BackgroundImageFix"/>
<feBlend mode="normal" in="SourceGraphic" in2="BackgroundImageFix" result="shape"/>
<feColorMatrix in="SourceAlpha" type="matrix" values="0 0 0 0 0 0 0 0 0 0 0 0 0 0 0 0 0 0 127 0" result="hardAlpha"/>
<feOffset dy="2"/>
<feGaussianBlur stdDeviation="1"/>
<feComposite in2="hardAlpha" operator="arithmetic" k2="-1" k3="1"/>
<feColorMatrix type="matrix" values="0 0 0 0 0 0 0 0 0 0 0 0 0 0 0 0 0 0 0.25 0"/>
<feBlend mode="normal" in2="shape" result="effect1_innerShadow_258_1645"/>
</filter>
</defs>
</svg>
