<svg width="15" height="15" viewBox="0 0 15 15" fill="none" xmlns="http://www.w3.org/2000/svg">
<g filter="url(#filter0_i_258_1655)">
<path d="M7.5 0C11.6426 0 15 3.35742 15 7.5C15 10.8076 12.8584 13.6143 9.8877 14.6133C10.1572 14.1797 10.3125 13.6699 10.3125 13.125V11.751C11.0244 11.2354 11.5898 10.5322 11.9355 9.71191C12.082 9.36621 11.7305 9.05273 11.3701 9.16406C10.207 9.51855 8.89746 9.7207 7.50879 9.7207C6.12012 9.7207 4.80762 9.51855 3.64746 9.16406C3.28711 9.05273 2.93555 9.36621 3.08203 9.71191C3.4248 10.5264 3.95801 11.2236 4.6875 11.7393V13.125C4.6875 13.6699 4.84277 14.1797 5.1123 14.6133C2.14072 13.6143 0 10.8076 0 7.5C0 3.35742 3.35742 8.78906e-06 7.5 8.78906e-06V0ZM3.48047 4.35938L4.53516 5.625L3.48047 6.89062C3.40137 6.95508 3.39844 7.03418 3.39844 7.11621C3.39844 7.37695 3.67969 7.54688 3.91113 7.4209L6.54492 6.01758C6.8584 5.85059 6.8584 5.39941 6.54492 5.23242L3.91113 3.8291C3.67969 3.70312 3.39844 3.87305 3.39844 4.13379C3.39844 4.21582 3.40137 4.29492 3.48047 4.35938ZM8.45508 5.23242C8.1416 5.39941 8.1416 5.85059 8.45508 6.01758L11.0889 7.4209C11.3203 7.54688 11.6016 7.37695 11.6016 7.11621C11.6016 7.03418 11.5723 6.95508 11.5195 6.89062L10.4648 5.625L11.5195 4.35938C11.5723 4.29492 11.6016 4.21582 11.6016 4.13379C11.6016 3.87305 11.3203 3.70312 11.0889 3.8291L8.45508 5.23242ZM7.5 15C6.46582 15 5.625 14.1592 5.625 13.125V11.7949C5.625 11.3643 5.97363 11.0156 6.4043 11.0156H6.46289C6.79395 11.0156 7.08105 11.2471 7.1543 11.5693C7.23633 11.9385 7.7373 11.9385 7.8457 11.5693C7.91894 11.2471 8.20605 11.0156 8.53711 11.0156H8.5957C9.02637 11.0156 9.375 11.3643 9.375 11.7949V13.125C9.375 14.1592 8.53418 15 7.5 15Z" fill="#F3B617"/>
</g>
<defs>
<filter id="filter0_i_258_1655" x="0" y="0" width="15" height="17" filterUnits="userSpaceOnUse" color-interpolation-filters="sRGB">
<feFlood flood-opacity="0" result="BackgroundImageFix"/>
<feBlend mode="normal" in="SourceGraphic" in2="BackgroundImageFix" result="shape"/>
<feColorMatrix in="SourceAlpha" type="matrix" values="0 0 0 0 0 0 0 0 0 0 0 0 0 0 0 0 0 0 127 0" result="hardAlpha"/>
<feOffset dy="2"/>
<feGaussianBlur stdDeviation="1"/>
<feComposite in2="hardAlpha" operator="arithmetic" k2="-1" k3="1"/>
<feColorMatrix type="matrix" values="0 0 0 0 0 0 0 0 0 0 0 0 0 0 0 0 0 0 0.25 0"/>
<feBlend mode="normal" in2="shape" result="effect1_innerShadow_258_1655"/>
</filter>
</defs>
</svg>
