<svg width="15" height="15" viewBox="0 0 15 15" fill="none" xmlns="http://www.w3.org/2000/svg">
<g filter="url(#filter0_i_252_1637)">
<path d="M0 7.5C0 3.35742 3.35742 0 7.5 0C11.6426 0 15 3.35742 15 7.5C15 11.6426 11.6426 15 7.5 15C3.35742 15 0 11.6426 0 7.5ZM11.6982 10.5469H10.0781V11.7188H10.3125C11.0098 11.7188 11.5869 11.2119 11.6982 10.5469ZM10.3125 8.90625H10.0781V10.0781H11.6982C11.5869 9.41309 11.0098 8.90625 10.3125 8.90625ZM9.60938 10.0781V8.90625H7.73438V10.0781H9.60938ZM9.60938 11.7188V10.5469H7.73438V11.7188H9.60938ZM5.39062 8.90625V10.0781H7.26562V8.90625H5.39062ZM5.39062 10.5469V11.7188H7.26562V10.5469H5.39062ZM4.92188 10.0781V8.90625H4.6875C3.99023 8.90625 3.41309 9.41309 3.30176 10.0781H4.92188ZM4.92188 11.7188V10.5469H3.30176C3.41309 11.2119 3.99023 11.7188 4.6875 11.7188H4.92188ZM5.16797 5.15625C4.64941 5.15625 4.23047 5.5752 4.23047 6.09375C4.23047 6.6123 4.64941 7.03125 5.16797 7.03125C5.68359 7.03125 6.10547 6.6123 6.10547 6.09375C6.10547 5.5752 5.68359 5.15625 5.16797 5.15625ZM9.85547 7.03125C10.3711 7.03125 10.793 6.6123 10.793 6.09375C10.793 5.5752 10.3711 5.15625 9.85547 5.15625C9.33691 5.15625 8.91797 5.5752 8.91797 6.09375C8.91797 6.6123 9.33691 7.03125 9.85547 7.03125Z" fill="#6819B8"/>
</g>
<defs>
<filter id="filter0_i_252_1637" x="0" y="0" width="15" height="17" filterUnits="userSpaceOnUse" color-interpolation-filters="sRGB">
<feFlood flood-opacity="0" result="BackgroundImageFix"/>
<feBlend mode="normal" in="SourceGraphic" in2="BackgroundImageFix" result="shape"/>
<feColorMatrix in="SourceAlpha" type="matrix" values="0 0 0 0 0 0 0 0 0 0 0 0 0 0 0 0 0 0 127 0" result="hardAlpha"/>
<feOffset dy="2"/>
<feGaussianBlur stdDeviation="1"/>
<feComposite in2="hardAlpha" operator="arithmetic" k2="-1" k3="1"/>
<feColorMatrix type="matrix" values="0 0 0 0 0 0 0 0 0 0 0 0 0 0 0 0 0 0 0.25 0"/>
<feBlend mode="normal" in2="shape" result="effect1_innerShadow_252_1637"/>
</filter>
</defs>
</svg>
