<svg width="344" height="258" viewBox="0 0 344 258" fill="none" xmlns="http://www.w3.org/2000/svg">
<path d="M222.448 100.98V126.113C222.448 130.484 226.136 134.171 230.684 134.171H320.812C325.361 134.171 329.049 130.484 329.049 125.936V104.702L340.272 92.9162L230.713 92.5743C226.153 92.5572 222.448 96.2501 222.448 100.98Z" fill="#F5F5F5"/>
<path d="M315.762 107.797L233.979 107.42L233.985 104.907L315.774 105.283L315.762 107.797Z" fill="#E0E0E0"/>
<path d="M315.762 116.065L233.979 115.689L233.985 113.176L315.774 113.552L315.762 116.065Z" fill="#E0E0E0"/>
<path d="M283.413 121.45L283.401 123.963L315.76 124.122L315.772 121.609L283.413 121.45Z" fill="#E0E0E0"/>
<path d="M68.8447 229.077C81.4473 220.272 84.3087 203.933 83.8071 189.247C83.7216 186.796 83.9952 184.209 82.8267 182.061C81.6582 179.912 78.9393 178.442 76.7448 179.473C74.9208 180.328 74.1285 182.448 73.1139 184.198C71.7574 186.529 69.7396 188.455 67.3627 189.692C65.8009 190.501 63.8686 190.997 62.3296 190.147C60.2149 188.979 59.9641 186.061 59.9812 183.622C60.0097 179.074 60.0382 174.532 60.0667 169.99C60.0838 167.551 60.0895 165.06 59.3314 162.747C58.5733 160.433 56.8975 158.284 54.5776 157.635C52.2577 156.985 49.3906 158.324 48.9004 160.712C48.6952 161.704 48.9004 162.735 48.832 163.75C48.7636 164.764 48.2905 165.881 47.3329 166.166C46.3582 166.451 45.3835 165.761 44.6539 165.049C42.1345 162.587 40.4302 159.413 38.8342 156.261C37.2382 153.104 35.6878 149.878 33.4021 147.194C31.1164 144.51 27.9586 142.378 24.4645 142.185C20.9704 141.985 17.2484 144.145 16.3649 147.57C15.4814 151.007 17.4878 154.494 19.6709 157.281C22.9084 161.413 26.7388 165.06 31.0081 168.087C31.7776 168.634 32.6098 169.221 32.9062 170.127C33.4363 171.751 31.8973 173.37 30.2899 173.9C28.4716 174.504 26.4994 174.316 24.5956 174.538C22.6918 174.76 20.6342 175.598 19.916 177.399C18.9185 179.889 21.0046 182.505 23.0509 184.215C27.1606 187.64 31.8517 190.347 36.8563 192.182C38.6518 192.837 40.5385 193.413 41.9863 194.673C43.4341 195.932 44.3062 198.126 43.4341 199.842C42.562 201.563 40.3162 202.11 38.4352 201.762C36.5542 201.414 34.8727 200.394 33.0829 199.716C29.7313 198.451 25.405 198.685 23.2561 201.58C21.8425 203.483 21.7228 206.133 22.4353 208.401C23.1478 210.67 24.5956 212.624 26.1346 214.431C31.504 220.734 38.3839 225.806 46.1587 228.502C53.9107 231.175 61.1155 231.904 68.8447 229.077Z" fill="#F5F5F5"/>
<path d="M69.0387 239.968C68.5086 234.149 67.2318 227.276 65.0544 219.867C62.8941 212.453 59.8503 204.526 56.379 196.342C55.5069 194.302 54.6405 192.279 53.7855 190.29C52.9305 188.306 52.0812 186.34 51.135 184.465C49.254 180.71 47.1621 177.245 45.0702 174.013C42.9783 170.782 40.8807 167.796 38.8971 165.014C36.9078 162.239 34.9983 159.68 33.1629 157.429C29.5035 152.904 26.1291 149.616 23.7181 147.45C22.5154 146.362 21.5521 145.552 20.8966 145.011C20.5774 144.754 20.3323 144.549 20.1442 144.401C19.9732 144.264 19.882 144.202 19.8763 144.207C19.8706 144.213 19.9504 144.293 20.1157 144.441C20.2981 144.601 20.5375 144.817 20.8396 145.085C21.478 145.649 22.4185 146.481 23.6041 147.587C25.9752 149.792 29.304 153.104 32.9178 157.64C34.7304 159.902 36.6171 162.461 38.595 165.242C40.5672 168.029 42.6534 171.021 44.7282 174.253C46.803 177.478 48.8835 180.938 50.7474 184.676C51.6879 186.54 52.5258 188.489 53.3808 190.478C54.2301 192.467 55.0965 194.484 55.9686 196.524C59.4342 204.702 62.4837 212.607 64.6611 219.993C66.8499 227.373 68.1552 234.206 68.7252 240.002" fill="#E0E0E0"/>
<path d="M51.0094 184.454C51.0379 184.46 51.1234 184.089 51.2488 183.411C51.3742 182.739 51.5281 181.758 51.6991 180.545C52.0468 178.117 52.4059 174.749 52.7878 171.033C53.1754 167.317 53.5801 163.96 53.962 161.544C54.1501 160.336 54.3097 159.361 54.4294 158.683C54.5434 158.011 54.5947 157.629 54.5662 157.623C54.5377 157.617 54.4294 157.982 54.2584 158.643C54.0874 159.304 53.8765 160.279 53.6485 161.481C53.1868 163.892 52.7251 167.254 52.3375 170.976C51.967 174.646 51.6307 177.963 51.3742 180.499C51.2488 181.644 51.1462 182.608 51.0607 183.383C51.0037 184.067 50.9752 184.448 51.0094 184.454Z" fill="#E0E0E0"/>
<path d="M19.6479 178.595C19.6479 178.624 20.0925 178.681 20.8962 178.744C21.6999 178.818 22.8684 178.915 24.2991 179.08C27.1719 179.388 31.122 179.957 35.4597 180.772C39.7917 181.599 43.6848 182.511 46.4778 183.251C47.88 183.61 49.0029 183.935 49.7838 184.152C50.5647 184.374 50.9979 184.482 51.0093 184.454C51.0207 184.425 50.5989 184.26 49.8351 183.987C49.0713 183.719 47.9541 183.348 46.5633 182.944C43.7817 182.123 39.8886 181.154 35.5452 180.328C31.2018 179.507 27.2232 178.989 24.3333 178.761C22.8912 178.635 21.717 178.584 20.9076 178.567C20.0982 178.555 19.6479 178.561 19.6479 178.595Z" fill="#E0E0E0"/>
<path d="M64.6663 219.292C64.6834 219.298 64.7518 219.167 64.8829 218.91C65.0254 218.603 65.2021 218.227 65.4187 217.776C65.8804 216.79 66.5131 215.343 67.2655 213.548C68.776 209.957 70.714 204.931 72.7717 199.351C74.8294 193.772 76.7161 188.734 78.1525 185.115C78.8536 183.354 79.435 181.912 79.8682 180.835C80.0506 180.368 80.2045 179.986 80.3299 179.667C80.4325 179.399 80.4781 179.257 80.461 179.245C80.4439 179.24 80.3755 179.371 80.2444 179.627C80.1019 179.935 79.9252 180.305 79.7086 180.761C79.2469 181.747 78.6199 183.195 77.8618 184.99C76.3513 188.58 74.4133 193.607 72.3556 199.186C70.2979 204.765 68.4112 209.798 66.9748 213.417C66.268 215.172 65.6923 216.619 65.2591 217.697C65.0767 218.164 64.9228 218.551 64.7974 218.865C64.7005 219.144 64.6492 219.287 64.6663 219.292Z" fill="#E0E0E0"/>
<path d="M22.9997 205.866C22.994 205.883 23.1365 205.94 23.4158 206.037C23.7407 206.145 24.1397 206.282 24.6242 206.441C25.7414 206.806 27.2519 207.29 29.0873 207.889C32.855 209.108 38.0362 210.858 43.7647 212.796C49.4932 214.733 54.6973 216.437 58.4935 217.577C60.3916 218.147 61.9306 218.597 63.0022 218.888C63.4981 219.019 63.9028 219.122 64.2391 219.213C64.5241 219.281 64.6723 219.31 64.678 219.298C64.6837 219.281 64.5412 219.224 64.2619 219.127C63.937 219.019 63.538 218.888 63.0535 218.723C61.9363 218.358 60.4258 217.874 58.5904 217.275C54.8227 216.056 49.6357 214.306 43.9129 212.368C38.1844 210.431 32.9804 208.727 29.1899 207.587C27.2918 207.011 25.7528 206.567 24.6812 206.276C24.1853 206.145 23.7806 206.037 23.4443 205.951C23.1536 205.883 22.9997 205.854 22.9997 205.866Z" fill="#E0E0E0"/>
<path d="M97.9259 74.9815V94.4551C97.9259 97.9771 95.0702 100.832 91.5477 100.832H21.7114C18.1888 100.832 15.3331 97.9771 15.3331 94.4551V78.002L6.64062 68.8665L91.5305 68.5986C95.0588 68.5929 97.9259 71.4482 97.9259 74.9815Z" fill="#E0E0E0"/>
<path d="M25.6214 80.4008L88.9939 80.1045L88.9882 78.1611L25.6157 78.4518L25.6214 80.4008Z" fill="#FAFAFA"/>
<path d="M25.6214 86.8071L88.9939 86.5164L88.9882 84.5674L25.6157 84.858L25.6214 86.8071Z" fill="#FAFAFA"/>
<path d="M50.6914 90.9801L25.6172 91.1035L25.6268 93.0526L50.701 92.9292L50.6914 90.9801Z" fill="#FAFAFA"/>
<path d="M333.164 251.429C333.164 251.509 259.629 251.578 168.931 251.578C78.204 251.578 4.68555 251.509 4.68555 251.429C4.68555 251.35 78.2097 251.281 168.931 251.281C259.623 251.281 333.164 251.344 333.164 251.429Z" fill="#263238"/>
<path d="M274.831 110.914V244.847C274.831 248.483 271.884 251.429 268.247 251.429H70.2866C66.65 251.429 63.7031 248.483 63.7031 244.847V110.914C63.7031 107.278 66.65 104.332 70.2866 104.332H268.247C271.884 104.332 274.831 107.284 274.831 110.914Z" fill="#263238"/>
<path d="M78.1479 108.969L78.1479 246.788H254.466V108.969H78.1479Z" fill="white"/>
<path d="M269.727 179.17C270.44 176.137 268.559 173.1 265.525 172.387C262.491 171.674 259.453 173.555 258.74 176.589C258.027 179.622 259.909 182.659 262.943 183.372C265.977 184.085 269.014 182.204 269.727 179.17Z" fill="#455A64"/>
<path d="M72.1163 156.421V199.34C72.1163 199.722 71.8085 200.035 71.4209 200.035H70.4747C70.0928 200.035 69.7793 199.728 69.7793 199.34V156.421C69.7793 156.039 70.0871 155.726 70.4747 155.726H71.4209C71.8085 155.731 72.1163 156.039 72.1163 156.421Z" fill="#455A64"/>
<path d="M128.16 189.851C132.485 183.281 130.665 174.449 124.093 170.125C117.522 165.8 108.689 167.621 104.364 174.191C100.039 180.761 101.859 189.593 108.43 193.917C115.002 198.242 123.835 196.421 128.16 189.851Z" fill="#7AE1B0"/>
<path opacity="0.3" d="M128.16 189.851C132.485 183.281 130.665 174.449 124.093 170.125C117.522 165.8 108.689 167.621 104.364 174.191C100.039 180.761 101.859 189.593 108.43 193.917C115.002 198.242 123.835 196.421 128.16 189.851Z" fill="white"/>
<path d="M111.349 178.437C111.891 178.391 112.381 178.99 112.444 179.765C112.506 180.546 112.125 181.212 111.583 181.258C111.042 181.304 110.551 180.705 110.489 179.93C110.426 179.149 110.808 178.483 111.349 178.437Z" fill="#263238"/>
<path d="M120.407 178.249C119.865 178.226 119.403 178.841 119.369 179.622C119.335 180.403 119.751 181.053 120.293 181.075C120.834 181.098 121.296 180.483 121.33 179.702C121.358 178.921 120.948 178.271 120.407 178.249Z" fill="#263238"/>
<path d="M121.957 184.842C121.957 185.007 119.301 185.144 116.029 185.144C112.752 185.144 110.101 185.007 110.101 184.842C110.101 184.677 112.757 184.54 116.029 184.54C119.307 184.54 121.957 184.677 121.957 184.842Z" fill="#263238"/>
<path d="M112.438 176.801C112.404 176.972 111.726 176.966 110.933 177.092C110.141 177.212 109.497 177.422 109.411 177.274C109.326 177.137 109.919 176.636 110.836 176.493C111.76 176.345 112.478 176.642 112.438 176.801Z" fill="#263238"/>
<path d="M122.978 177.491C122.869 177.628 122.254 177.303 121.461 177.069C120.675 176.818 119.985 176.744 119.974 176.568C119.951 176.408 120.726 176.203 121.644 176.488C122.556 176.761 123.086 177.371 122.978 177.491Z" fill="#263238"/>
<path d="M233.977 183.162C235.259 175.111 229.771 167.545 221.719 166.263C213.667 164.98 206.099 170.467 204.817 178.518C203.534 186.569 209.022 194.135 217.075 195.418C225.127 196.7 232.694 191.213 233.977 183.162Z" fill="#299786"/>
<path opacity="0.3" d="M233.977 183.162C235.259 175.111 229.771 167.545 221.719 166.263C213.667 164.98 206.099 170.467 204.817 178.518C203.534 186.569 209.022 194.135 217.075 195.418C225.127 196.7 232.694 191.213 233.977 183.162Z" fill="black"/>
<path d="M214.291 177.125C214.85 177.08 215.357 177.695 215.425 178.505C215.494 179.314 215.095 180.003 214.531 180.049C213.972 180.095 213.465 179.479 213.396 178.67C213.328 177.861 213.733 177.171 214.291 177.125Z" fill="#263238"/>
<path d="M223.679 176.932C223.12 176.909 222.636 177.548 222.602 178.357C222.567 179.166 222.995 179.839 223.559 179.867C224.118 179.89 224.602 179.252 224.636 178.442C224.665 177.628 224.237 176.955 223.679 176.932Z" fill="#263238"/>
<path d="M225.286 183.765C225.224 183.845 224.614 183.412 223.559 182.87C222.505 182.34 220.949 181.753 219.165 181.782C217.38 181.816 215.83 182.426 214.758 182.927C213.687 183.446 213.054 183.845 212.997 183.765C212.957 183.708 213.504 183.184 214.559 182.546C215.608 181.93 217.227 181.212 219.159 181.172C221.091 181.138 222.738 181.845 223.776 182.489C224.808 183.155 225.332 183.714 225.286 183.765Z" fill="#263238"/>
<path d="M215.42 175.427C215.471 175.49 215.374 175.672 215.129 175.889C214.884 176.1 214.479 176.339 213.972 176.43C213.465 176.522 212.986 176.425 212.69 176.288C212.388 176.145 212.251 175.986 212.285 175.917C212.365 175.758 213.054 175.986 213.864 175.832C214.679 175.69 215.306 175.285 215.42 175.427Z" fill="#263238"/>
<path d="M226.341 176.14C226.364 176.214 226.204 176.357 225.879 176.465C225.56 176.562 225.053 176.596 224.551 176.419C224.05 176.248 223.679 175.941 223.468 175.696C223.252 175.445 223.172 175.251 223.229 175.194C223.36 175.063 223.953 175.57 224.751 175.849C225.543 176.134 226.284 175.975 226.341 176.14Z" fill="#263238"/>
<path d="M191.092 221.817L194.512 220.125L197.847 221.977L197.288 218.204L200.087 215.605L196.325 214.967L194.717 211.502L192.945 214.881L189.154 215.343L191.822 218.073L191.092 221.817Z" fill="#E0E0E0"/>
<path d="M177.139 221.817L180.559 220.125L183.893 221.977L183.335 218.204L186.133 215.605L182.371 214.967L180.764 211.502L178.991 214.881L175.201 215.343L177.868 218.073L177.139 221.817Z" fill="#8DF2BA"/>
<path d="M163.185 221.817L166.605 220.125L169.94 221.977L169.381 218.204L172.18 215.605L168.418 214.967L166.81 211.502L165.038 214.881L161.247 215.343L163.915 218.073L163.185 221.817Z" fill="#8DF2BA"/>
<path d="M149.226 221.817L152.651 220.125L155.986 221.977L155.427 218.204L158.226 215.605L154.464 214.967L152.857 211.502L151.084 214.881L147.293 215.343L149.961 218.073L149.226 221.817Z" fill="#8DF2BA"/>
<path d="M135.272 221.817L138.698 220.125L142.032 221.977L141.474 218.204L144.272 215.605L140.51 214.967L138.903 211.502L137.13 214.881L133.34 215.343L136.007 218.073L135.272 221.817Z" fill="#8DF2BA"/>
<path d="M200.246 137.842C200.246 137.928 184.936 137.996 166.058 137.996C147.174 137.996 131.869 137.928 131.869 137.842C131.869 137.757 147.174 137.688 166.058 137.688C184.936 137.688 200.246 137.757 200.246 137.842Z" fill="#263238"/>
<path d="M183.437 133.733C183.437 133.818 175.873 133.887 166.554 133.887C157.223 133.887 149.665 133.818 149.665 133.733C149.665 133.647 157.223 133.579 166.554 133.579C175.873 133.585 183.437 133.653 183.437 133.733Z" fill="#263238"/>
<path d="M187.477 183.409C190.77 173.188 185.152 162.232 174.929 158.939C164.706 155.647 153.748 161.264 150.455 171.485C147.162 181.707 152.78 192.662 163.003 195.955C173.226 199.248 184.184 193.631 187.477 183.409Z" fill="#8DF2BA"/>
<path d="M162.261 172.543C162.997 172.481 163.669 173.296 163.755 174.361C163.84 175.427 163.316 176.339 162.581 176.396C161.845 176.459 161.173 175.644 161.087 174.578C161.002 173.512 161.526 172.6 162.261 172.543Z" fill="#263238"/>
<path d="M174.631 172.287C173.89 172.258 173.257 173.096 173.212 174.162C173.166 175.228 173.73 176.117 174.471 176.145C175.212 176.174 175.845 175.336 175.891 174.27C175.93 173.204 175.366 172.315 174.631 172.287Z" fill="#263238"/>
<path d="M176.751 178.669C176.779 178.698 176.625 178.897 176.312 179.239C176.01 179.593 175.508 180.037 174.853 180.55C174.174 181.023 173.337 181.593 172.282 181.958C171.239 182.345 170.008 182.579 168.714 182.516C167.42 182.471 166.229 182.117 165.208 181.707C164.177 181.308 163.327 180.789 162.626 180.356C161.247 179.433 160.517 178.721 160.557 178.669C160.62 178.59 161.441 179.182 162.849 179.991C163.561 180.373 164.41 180.835 165.408 181.188C166.4 181.553 167.534 181.866 168.742 181.912C169.951 181.969 171.096 181.77 172.094 181.433C173.103 181.12 173.918 180.613 174.608 180.202C175.269 179.746 175.805 179.365 176.152 179.068C176.506 178.783 176.722 178.641 176.751 178.669Z" fill="#263238"/>
<path d="M163.14 168.166C163.106 168.337 162.176 168.274 161.071 168.457C159.965 168.622 159.098 168.964 159.013 168.81C158.927 168.673 159.748 168.041 160.979 167.853C162.211 167.659 163.185 168.012 163.14 168.166Z" fill="#263238"/>
<path d="M178.803 169.079C178.695 169.215 177.874 168.725 176.768 168.395C175.668 168.047 174.71 167.996 174.699 167.819C174.676 167.66 175.719 167.432 176.945 167.813C178.17 168.184 178.911 168.959 178.803 169.079Z" fill="#263238"/>
<path d="M160.871 177.273C160.945 177.262 161.071 177.461 161.088 177.826C161.11 178.19 160.991 178.709 160.666 179.171C160.341 179.632 159.885 179.912 159.537 180.014C159.184 180.117 158.956 180.065 158.939 179.991C158.91 179.82 159.657 179.575 160.17 178.823C160.711 178.088 160.706 177.301 160.871 177.273Z" fill="#263238"/>
<path d="M178.393 179.057C178.41 179.131 178.25 179.251 177.942 179.28C177.64 179.308 177.207 179.211 176.836 178.932C176.46 178.653 176.244 178.265 176.187 177.974C176.124 177.678 176.192 177.49 176.266 177.479C176.437 177.467 176.631 178.037 177.201 178.442C177.749 178.875 178.358 178.892 178.393 179.057Z" fill="#263238"/>
<path d="M192.757 177.274C192.757 177.274 192.739 177.143 192.722 176.881C192.705 176.613 192.682 176.231 192.648 175.735C192.631 175.484 192.614 175.199 192.597 174.892C192.563 174.584 192.5 174.248 192.443 173.883C192.386 173.518 192.323 173.125 192.255 172.709C192.204 172.287 192.05 171.86 191.941 171.392C191.514 169.529 190.642 167.323 189.268 164.981C187.877 162.656 185.877 160.222 183.146 158.159C182.804 157.903 182.457 157.646 182.109 157.384C181.744 157.145 181.357 156.928 180.98 156.689C180.593 156.467 180.222 156.199 179.806 156.011C179.396 155.811 178.98 155.612 178.558 155.412C178.347 155.31 178.136 155.213 177.925 155.11C177.703 155.031 177.481 154.951 177.258 154.865C176.814 154.7 176.363 154.54 175.907 154.375C175.446 154.221 174.967 154.124 174.494 153.993C174.015 153.885 173.542 153.714 173.04 153.663C172.048 153.52 171.04 153.315 170.002 153.31C169.484 153.292 168.959 153.241 168.435 153.247C167.91 153.275 167.38 153.304 166.844 153.327C166.577 153.344 166.309 153.344 166.041 153.378L165.237 153.503C164.701 153.594 164.16 153.657 163.618 153.765C162.558 154.056 161.458 154.267 160.415 154.706C159.338 155.053 158.323 155.583 157.28 156.085C156.773 156.358 156.288 156.678 155.786 156.98C155.541 157.139 155.279 157.27 155.045 157.447L154.339 157.977C153.364 158.649 152.509 159.487 151.614 160.291C151.209 160.735 150.805 161.186 150.394 161.636L150.086 161.972L149.813 162.337L149.266 163.072L148.713 163.813L148.228 164.605L147.744 165.403L147.504 165.802L147.299 166.223C147.031 166.788 146.758 167.352 146.484 167.916C146.267 168.509 146.051 169.101 145.834 169.694C145.053 172.105 144.632 174.664 144.597 177.268C144.632 179.873 145.053 182.437 145.834 184.842C146.051 185.435 146.267 186.028 146.484 186.62C146.758 187.184 147.031 187.754 147.299 188.313L147.504 188.735L147.749 189.133L148.234 189.931L148.718 190.724L149.271 191.464L149.819 192.2L150.092 192.564L150.4 192.901C150.81 193.351 151.215 193.801 151.62 194.246C152.515 195.055 153.37 195.893 154.344 196.559L155.051 197.089C155.285 197.266 155.547 197.403 155.792 197.557C156.294 197.853 156.778 198.172 157.286 198.451C158.329 198.953 159.343 199.483 160.421 199.831C161.464 200.269 162.564 200.48 163.624 200.771C164.16 200.885 164.707 200.948 165.243 201.033L166.046 201.158C166.314 201.193 166.582 201.193 166.85 201.21C167.386 201.238 167.916 201.267 168.44 201.289C168.965 201.295 169.489 201.25 170.008 201.227C171.051 201.221 172.054 201.016 173.046 200.873C173.548 200.822 174.021 200.651 174.499 200.543C174.973 200.412 175.457 200.315 175.913 200.161C176.369 199.996 176.819 199.831 177.264 199.671C177.486 199.591 177.709 199.511 177.931 199.426C178.142 199.323 178.353 199.226 178.564 199.124C178.985 198.924 179.401 198.725 179.812 198.525C180.228 198.337 180.598 198.07 180.986 197.847C181.368 197.614 181.75 197.391 182.115 197.152C182.468 196.89 182.81 196.633 183.152 196.377C185.882 194.314 187.883 191.88 189.274 189.555C190.653 187.219 191.525 185.013 191.947 183.144C192.055 182.677 192.215 182.249 192.261 181.827C192.329 181.411 192.392 181.018 192.449 180.653C192.506 180.289 192.568 179.952 192.603 179.645C192.62 179.337 192.637 179.052 192.654 178.801C192.688 178.305 192.711 177.924 192.728 177.656C192.739 177.405 192.757 177.274 192.757 177.274C192.757 177.274 192.762 177.405 192.751 177.667C192.739 177.935 192.728 178.317 192.705 178.818C192.694 179.075 192.682 179.354 192.671 179.667C192.643 179.981 192.58 180.317 192.534 180.682C192.483 181.047 192.42 181.446 192.363 181.867C192.318 182.295 192.164 182.722 192.061 183.195C191.651 185.076 190.79 187.298 189.416 189.663C188.031 192.017 186.025 194.479 183.283 196.571C182.941 196.827 182.588 197.089 182.234 197.357C181.87 197.602 181.482 197.824 181.094 198.064C180.701 198.286 180.331 198.56 179.914 198.753C179.498 198.953 179.082 199.158 178.655 199.363C178.444 199.466 178.227 199.568 178.016 199.671C177.794 199.751 177.572 199.836 177.344 199.916C176.893 200.081 176.437 200.247 175.976 200.418C175.514 200.571 175.024 200.674 174.545 200.805C174.061 200.919 173.582 201.09 173.075 201.141C172.071 201.289 171.057 201.495 170.002 201.506C169.478 201.523 168.953 201.58 168.418 201.569C167.888 201.54 167.352 201.517 166.81 201.489C166.542 201.472 166.269 201.472 166.001 201.438L165.191 201.312C164.65 201.221 164.103 201.164 163.556 201.05C162.484 200.759 161.372 200.543 160.312 200.104C159.224 199.756 158.192 199.221 157.137 198.714C156.624 198.434 156.128 198.115 155.621 197.813C155.37 197.654 155.108 197.517 154.869 197.34L154.151 196.804C153.164 196.126 152.298 195.283 151.392 194.462C150.981 194.012 150.571 193.556 150.155 193.1L149.841 192.758L149.562 192.388L149.003 191.641L148.445 190.894L147.955 190.097L147.464 189.293L147.219 188.888L147.014 188.461C146.741 187.891 146.467 187.321 146.188 186.746C145.971 186.147 145.749 185.549 145.526 184.945C144.734 182.506 144.307 179.912 144.272 177.274C144.307 174.635 144.734 172.042 145.526 169.603C145.749 168.999 145.965 168.4 146.188 167.802C146.467 167.226 146.741 166.657 147.014 166.087L147.225 165.659L147.47 165.255L147.96 164.451L148.451 163.653L149.009 162.907L149.568 162.16L149.847 161.79L150.161 161.448C150.577 160.992 150.987 160.542 151.397 160.086C152.304 159.271 153.17 158.422 154.156 157.743L154.874 157.208C155.114 157.031 155.376 156.894 155.627 156.735C156.134 156.433 156.63 156.108 157.143 155.834C158.198 155.327 159.224 154.791 160.312 154.444C161.372 154.005 162.484 153.788 163.556 153.498C164.097 153.384 164.65 153.321 165.191 153.235L166.001 153.11C166.269 153.076 166.542 153.076 166.81 153.059C167.352 153.03 167.888 153.007 168.418 152.979C168.948 152.973 169.478 153.025 170.002 153.042C171.057 153.053 172.071 153.258 173.075 153.406C173.582 153.458 174.061 153.634 174.545 153.743C175.024 153.874 175.508 153.976 175.976 154.13C176.437 154.301 176.888 154.466 177.344 154.632C177.572 154.717 177.794 154.797 178.016 154.877C178.233 154.979 178.444 155.082 178.655 155.184C179.077 155.39 179.498 155.595 179.914 155.794C180.336 155.988 180.707 156.256 181.094 156.484C181.476 156.723 181.864 156.945 182.234 157.191C182.588 157.453 182.935 157.715 183.283 157.977C186.025 160.069 188.037 162.531 189.416 164.884C190.79 167.249 191.651 169.472 192.061 171.353C192.164 171.82 192.318 172.253 192.363 172.68C192.426 173.102 192.483 173.495 192.534 173.866C192.586 174.231 192.648 174.567 192.671 174.88C192.682 175.194 192.694 175.473 192.705 175.729C192.722 176.225 192.739 176.613 192.751 176.881C192.762 177.137 192.757 177.274 192.757 177.274Z" fill="#8DF2BA"/>
<path d="M254.465 108.971H78.147V117.764H254.465V108.971Z" fill="#E0E0E0"/>
<path d="M83.8357 113.126C83.8357 113.781 83.2999 114.317 82.6444 114.317C81.9889 114.317 81.4531 113.781 81.4531 113.126C81.4531 112.47 81.9889 111.935 82.6444 111.935C83.2999 111.935 83.8357 112.47 83.8357 113.126Z" fill="white"/>
<path d="M87.7971 113.126C87.7971 113.781 87.2613 114.317 86.6058 114.317C85.9503 114.317 85.4146 113.781 85.4146 113.126C85.4146 112.47 85.9503 111.935 86.6058 111.935C87.2613 111.935 87.7971 112.47 87.7971 113.126Z" fill="white"/>
<path d="M91.7527 113.126C91.7527 113.781 91.2169 114.317 90.5614 114.317C89.9059 114.317 89.3701 113.781 89.3701 113.126C89.3701 112.47 89.9059 111.935 90.5614 111.935C91.2169 111.935 91.7527 112.47 91.7527 113.126Z" fill="white"/>
<path d="M235.039 144.778C235.039 144.863 204.447 144.932 166.713 144.932C128.968 144.932 98.3818 144.863 98.3818 144.778C98.3818 144.692 128.968 144.624 166.713 144.624C204.447 144.624 235.039 144.692 235.039 144.778Z" fill="#E0E0E0"/>
<path d="M235.039 148.163C235.039 148.248 204.447 148.317 166.713 148.317C128.968 148.317 98.3818 148.248 98.3818 148.163C98.3818 148.077 128.968 148.009 166.713 148.009C204.447 148.014 235.039 148.077 235.039 148.163Z" fill="#E0E0E0"/>
<path d="M145.361 105.265C145.361 105.265 144.158 102.535 143.93 101.937C143.32 100.301 139.37 89.3422 140.317 87.6838C144.688 80.0129 148.08 74.5533 156.71 74.5533L171.946 74.4507C171.946 74.4507 186.384 71.51 196.553 104.336L145.361 105.265Z" fill="#455A64"/>
<path d="M113.219 108.012L133.163 103.715L156.613 91.3825L156.704 74.5533C153.187 73.5845 146.45 76.0236 134.332 82.1957L116.325 91.4908C110.158 94.6765 108.63 102.809 113.219 108.012Z" fill="#455A64"/>
<path d="M158.112 140.587C157.821 139.641 158.021 139.032 159.4 139.493C162.444 140.513 165.163 140.183 165.83 139.59C166.497 138.997 165.881 137.869 164.895 137.966C164.097 138.046 162.717 137.772 161.691 137.521C160.842 137.316 160.033 136.98 159.303 136.513C158.67 136.108 158.118 135.726 157.633 135.378C157.633 135.378 154.829 133.35 153.945 131.72L144.318 135.846L145.868 140.667C145.868 140.667 146.37 143.505 149.123 144.4C151.876 145.295 156.254 144.959 156.254 144.959C157.057 144.434 160.152 148.914 161.093 150.492C162.016 152.054 163.151 152.27 163.51 151.302C163.755 150.64 161.007 145.734 160.044 144.189C159.514 143.363 158.46 141.727 158.112 140.587Z" fill="#B77153"/>
<path d="M151.591 144.981C151.585 145.015 151.352 145.004 151.027 144.844C150.702 144.685 150.297 144.348 150.023 143.858C149.75 143.368 149.676 142.85 149.71 142.485C149.744 142.12 149.858 141.921 149.892 141.932C149.978 141.944 149.773 142.815 150.291 143.71C150.776 144.622 151.625 144.901 151.591 144.981Z" fill="#995037"/>
<path d="M154.641 145.096C154.629 145.13 154.413 145.107 154.105 144.942C153.797 144.782 153.421 144.446 153.164 143.979C152.908 143.506 152.839 143.01 152.868 142.662C152.896 142.315 152.999 142.121 153.033 142.132C153.119 142.144 152.948 142.976 153.426 143.836C153.882 144.708 154.675 145.016 154.641 145.096Z" fill="#995037"/>
<path d="M112.654 107.357C112.654 107.357 143.212 142.474 143.178 141.893C143.144 141.312 156.875 131.048 156.875 131.048L126.91 95.3662L112.654 107.357Z" fill="#455A64"/>
<path d="M131.191 100.461C131.197 100.456 131.271 100.524 131.407 100.666C131.561 100.837 131.749 101.048 131.977 101.299C132.49 101.892 133.186 102.695 134.029 103.67C135.751 105.682 138.116 108.468 140.716 111.563C143.315 114.658 145.657 117.473 147.339 119.519C148.154 120.522 148.821 121.342 149.317 121.952C149.528 122.22 149.704 122.442 149.841 122.625C149.961 122.779 150.018 122.864 150.007 122.87C150.001 122.875 149.927 122.807 149.79 122.665C149.636 122.494 149.448 122.283 149.22 122.032C148.707 121.439 148.012 120.636 147.168 119.661C145.447 117.649 143.075 114.863 140.476 111.762C137.877 108.668 135.54 105.853 133.853 103.807C133.038 102.804 132.371 101.983 131.875 101.373C131.664 101.105 131.487 100.883 131.35 100.701C131.236 100.552 131.179 100.467 131.191 100.461Z" fill="#263238"/>
<path d="M185.249 104.507C185.187 104.49 185.586 103.67 185.614 102.256C185.626 101.555 185.529 100.712 185.221 99.8456C184.913 98.9736 184.372 98.1017 183.619 97.3323C182.878 96.5515 182.08 95.8791 181.442 95.1724C180.792 94.4714 180.325 93.7248 180.074 93.041C179.817 92.3571 179.777 91.753 179.823 91.3484C179.874 90.9437 179.971 90.7386 179.983 90.7443C180.051 90.7386 179.715 91.6504 180.273 92.9669C180.541 93.6109 181.009 94.3175 181.647 94.99C182.285 95.6682 183.083 96.335 183.841 97.1329C184.611 97.9193 185.187 98.8483 185.489 99.7658C185.797 100.678 185.876 101.555 185.836 102.279C185.797 103.003 185.648 103.573 185.517 103.955C185.38 104.319 185.266 104.513 185.249 104.507Z" fill="#263238"/>
<path d="M144.033 77.4826C144.027 77.4712 144.181 77.4028 144.477 77.2717C144.774 77.1464 145.218 76.9754 145.8 76.7873C146.387 76.6107 147.117 76.4283 147.989 76.3428C148.855 76.2687 149.875 76.2801 150.936 76.6164C151.996 76.9355 153.067 77.5966 153.951 78.554C154.84 79.5172 155.45 80.8279 155.763 82.247C156.071 83.666 156.231 85.2048 156.054 86.7891C155.872 88.362 155.353 89.9862 154.367 91.3654C153.375 92.7503 152.041 93.7704 150.713 94.6081C149.374 95.4516 148.029 96.1412 146.752 96.8137C144.204 98.1529 141.907 99.3554 139.963 100.376C138.048 101.367 136.486 102.176 135.375 102.752C134.85 103.014 134.434 103.225 134.121 103.385C133.83 103.527 133.676 103.595 133.676 103.584C133.67 103.573 133.813 103.487 134.092 103.328C134.394 103.157 134.805 102.929 135.318 102.644C136.418 102.045 137.962 101.208 139.86 100.182C141.793 99.1502 144.078 97.925 146.615 96.5629C147.886 95.8847 149.237 95.1894 150.554 94.3517C151.87 93.5253 153.164 92.5223 154.122 91.1887C155.074 89.8552 155.581 88.2822 155.763 86.7492C155.94 85.2105 155.786 83.6945 155.496 82.304C155.193 80.9134 154.618 79.6539 153.768 78.7193C152.925 77.7847 151.899 77.135 150.873 76.8158C149.853 76.4796 148.855 76.4454 148.006 76.5081C147.151 76.5765 146.421 76.7417 145.834 76.8956C145.253 77.0609 144.802 77.2147 144.5 77.323C144.198 77.437 144.039 77.494 144.033 77.4826Z" fill="#263238"/>
<path d="M134.548 103.675C134.451 103.704 134.195 101.664 132.844 99.6062C131.516 97.526 129.76 96.4603 129.823 96.3862C129.84 96.3577 130.296 96.58 130.946 97.0815C131.596 97.583 132.411 98.3923 133.095 99.4409C133.779 100.495 134.183 101.572 134.371 102.37C134.565 103.162 134.582 103.675 134.548 103.675Z" fill="#263238"/>
<path d="M179.47 99.8626C179.47 99.8626 179.253 99.9538 178.82 100.039C178.387 100.125 177.731 100.205 176.893 100.125C176.061 100.045 175.035 99.7828 173.998 99.173C172.966 98.5689 171.946 97.5602 171.325 96.1697C170.709 94.7962 170.447 93.0466 170.954 91.3198C171.216 90.4593 171.729 89.6158 172.567 89.0858C172.978 88.8236 173.513 88.6812 174.021 88.7894C174.539 88.8806 174.984 89.2283 175.292 89.6329C176.449 91.3312 176.643 93.6336 175.97 95.7137C175.622 96.751 175.052 97.7426 174.243 98.5405C173.439 99.344 172.396 99.9253 171.273 100.222C169.027 100.82 166.531 100.279 164.923 98.7456C163.322 97.2069 162.695 94.9387 163.02 92.9554C163.168 91.9581 163.59 91.0291 164.182 90.2712C164.49 89.9007 164.866 89.5759 165.322 89.3992C165.773 89.2112 166.291 89.2283 166.725 89.4163C167.585 89.7982 168.115 90.6473 168.212 91.4851C168.309 92.3342 168.064 93.1321 167.751 93.816C167.084 95.178 166.2 96.2381 165.322 97.053C164.445 97.8623 163.573 98.4322 162.832 98.814C162.085 99.2015 161.475 99.4295 161.053 99.5549C160.842 99.6233 160.677 99.6575 160.569 99.6916C160.46 99.7201 160.403 99.7315 160.403 99.7258C160.403 99.7201 160.455 99.6974 160.563 99.6632C160.671 99.6233 160.831 99.5777 161.036 99.5036C161.446 99.3554 162.051 99.1161 162.78 98.7171C163.51 98.3182 164.353 97.7426 165.208 96.9333C166.058 96.1241 166.918 95.0641 167.557 93.7305C167.859 93.0637 168.081 92.3057 167.979 91.5193C167.887 90.7556 167.386 89.9805 166.628 89.65C166.252 89.4904 165.813 89.479 165.419 89.6443C165.026 89.7982 164.678 90.0945 164.393 90.4422C163.84 91.1545 163.441 92.0436 163.299 92.9953C162.991 94.8931 163.612 97.0701 165.134 98.5234C166.656 99.9766 169.05 100.495 171.205 99.9253C172.282 99.6404 173.274 99.0933 174.038 98.3239C174.807 97.5602 175.36 96.6085 175.696 95.6169C176.021 94.6138 176.141 93.5652 176.033 92.5565C175.981 92.055 175.879 91.5592 175.719 91.0918C175.571 90.6188 175.36 90.1743 175.075 89.7982C174.79 89.422 174.408 89.1314 173.969 89.0516C173.536 88.9604 173.08 89.0744 172.71 89.3081C171.952 89.7811 171.444 90.5846 171.199 91.3882C170.698 93.0466 170.937 94.7392 171.524 96.0785C172.117 97.4291 173.092 98.4208 174.089 99.0249C175.092 99.6347 176.09 99.9082 176.91 100.005C178.563 100.187 179.464 99.8056 179.47 99.8626Z" fill="#FAFAFA"/>
<path d="M181.767 65.669C181.123 64.8826 180.65 63.9479 180.404 62.962C180.325 62.6372 180.268 62.2895 180.37 61.9704C180.473 61.6512 180.775 61.372 181.106 61.4062C181.448 61.4404 181.681 61.7595 181.864 62.0502C182.399 62.8993 182.918 63.7713 183.272 64.7173C183.368 64.9794 183.454 65.2473 183.437 65.5266C183.42 65.8058 183.289 66.0908 183.038 66.2161C182.77 66.3586 182.428 66.2788 182.183 66.1021C181.938 65.9255 181.761 65.6633 181.596 65.4126" fill="#995037"/>
<path d="M183.238 65.031C182.736 63.9766 182.235 62.928 181.733 61.8737C181.585 61.5603 181.431 61.2354 181.419 60.8935C181.408 60.5458 181.579 60.1697 181.904 60.05C182.189 59.9474 182.514 60.0614 182.736 60.2666C182.958 60.4661 183.101 60.7453 183.243 61.0132C183.483 61.4748 183.717 61.9364 183.956 62.398C184.15 62.7742 184.344 63.156 184.423 63.572C184.503 63.988 184.452 64.4497 184.19 64.7802C183.927 65.1107 183.42 65.2646 183.055 65.0481" fill="#995037"/>
<path d="M176.54 74.7986C176.54 74.7986 174.442 72.0802 174.254 70.644C174.066 69.2079 175.822 66.6661 179.59 66.0962C181.613 65.7885 182.799 65.2243 183.46 64.7684C183.939 64.4378 184.121 63.8337 183.899 63.298C183.403 62.0955 182.514 59.8672 182.582 59.5709C182.759 58.8015 183.26 58.8186 184.56 60.7221C185.865 62.6255 187.364 64.5632 187.074 65.4408C186.783 66.3185 182.189 69.0369 182.189 69.0369L183.443 71.0601L176.54 74.7986Z" fill="#B77153"/>
<path d="M189 102.741L174.54 74.4167L183.853 69.2021L203.416 100.21C203.416 100.21 204.447 102.194 205.889 104.513H189.491" fill="#455A64"/>
<path d="M183.699 69.196C183.705 69.2017 183.648 69.2416 183.54 69.31C183.408 69.3898 183.249 69.4867 183.049 69.6064C182.588 69.8742 181.961 70.239 181.174 70.6949C179.521 71.6352 177.213 72.9517 174.448 74.5246L174.499 74.3536C175.907 77.2202 177.731 80.5371 179.578 84.1445C182.32 89.4731 184.691 94.3572 186.361 97.9134C187.199 99.6915 187.854 101.139 188.305 102.136C188.516 102.621 188.687 103.003 188.812 103.293C188.926 103.561 188.977 103.704 188.972 103.704C188.96 103.709 188.886 103.572 188.755 103.316C188.613 103.031 188.43 102.655 188.196 102.182C187.701 101.162 187.011 99.7427 186.167 97.9988C184.452 94.4655 182.052 89.6042 179.31 84.2756C177.469 80.6738 175.656 77.3513 174.271 74.4676L174.214 74.3536L174.323 74.2966C177.11 72.7636 179.436 71.4756 181.1 70.5581C181.898 70.125 182.542 69.783 183.009 69.5323C183.215 69.424 183.38 69.3385 183.517 69.2701C183.631 69.2188 183.693 69.1903 183.699 69.196Z" fill="#263238"/>
<path d="M145.361 105.266C145.293 105.306 144.483 103.915 143.811 102.063C143.138 100.205 142.87 98.6266 142.95 98.6095C143.036 98.5924 143.429 100.125 144.102 101.961C144.757 103.79 145.441 105.22 145.361 105.266Z" fill="#263238"/>
<path d="M177.207 63.5035C179.481 64.3983 182.303 63.6289 183.807 61.6969C185.312 59.7707 185.375 56.8471 183.95 54.8524C187.216 54.0261 189.251 50.259 188.59 46.9593C187.929 43.6596 184.976 41.0779 181.687 40.3655C180.427 40.092 179.094 40.0635 177.868 40.4624C176.643 40.8613 175.542 41.7276 175.018 42.9073" fill="#263238"/>
<path d="M176.751 56.1182C176.762 56.1524 176.324 56.2322 175.634 56.5912C174.961 56.9445 174.015 57.674 173.451 58.9392C173.177 59.5661 172.995 60.3184 173.04 61.1219C173.086 61.9198 173.314 62.7803 173.816 63.5326C174.055 63.9144 174.368 64.2621 174.728 64.5698C175.081 64.8776 175.497 65.1397 175.947 65.3278C176.842 65.7267 177.902 65.8236 178.917 65.6014C179.926 65.362 180.838 64.8149 181.471 64.0626C181.796 63.6979 182.052 63.2819 182.24 62.8487C182.434 62.4213 182.559 61.9711 182.611 61.5209C182.736 60.6261 182.565 59.7542 182.263 59.0133C181.955 58.2667 181.465 57.674 180.946 57.2295C179.886 56.3347 178.723 56.0897 177.959 56.0612C177.184 56.0327 176.757 56.1524 176.751 56.1182C176.751 56.1068 176.854 56.0783 177.059 56.0327C177.258 55.9814 177.566 55.9415 177.965 55.9415C178.746 55.9358 179.96 56.1467 181.083 57.0642C181.636 57.5201 182.16 58.1356 182.497 58.9164C182.827 59.6915 183.015 60.609 182.89 61.5607C182.839 62.0338 182.708 62.5125 182.508 62.9684C182.314 63.43 182.041 63.8689 181.699 64.2621C181.026 65.0599 180.063 65.6469 178.985 65.9034C177.908 66.1428 176.78 66.0345 175.833 65.6071C175.355 65.4019 174.916 65.1283 174.545 64.7978C174.163 64.4729 173.838 64.1025 173.588 63.6922C173.063 62.8943 172.829 61.9825 172.795 61.139C172.761 60.2899 172.966 59.5091 173.263 58.8594C173.878 57.5486 174.881 56.8249 175.588 56.4943C175.947 56.3233 176.244 56.2265 176.443 56.1866C176.643 56.1239 176.745 56.1068 176.751 56.1182Z" fill="#E8505B"/>
<path d="M179.219 47.1361C181.579 47.005 183.751 45.2155 184.332 42.9245C184.913 40.6335 183.865 38.0233 181.853 36.781C182.822 34.0511 181.87 30.7571 179.59 28.9676C177.31 27.1781 173.878 27.0413 171.462 28.6314C169.615 25.3943 165.659 23.4966 161.977 24.0893C158.295 24.682 155.131 27.7138 154.384 31.3669C151.073 29.9991 146.952 30.8768 144.489 33.4869C142.027 36.0914 141.377 40.2517 142.927 43.483C139.325 43.7964 136.327 47.3526 136.635 50.9601C136.942 54.5619 140.493 57.5653 144.102 57.2632C143.366 59.6568 144.29 62.4664 146.302 63.9596C148.314 65.4527 151.272 65.5154 153.347 64.1134C154.669 66.2506 157.286 67.5214 159.782 67.2308C162.279 66.9401 164.542 65.1165 165.345 62.7343" fill="#263238"/>
<path d="M172.362 73.8703C172.482 71.0949 172.63 68.5816 172.63 68.5816C172.63 68.5816 178.832 67.8009 179.1 61.4693C179.367 55.1377 178.735 40.5596 178.735 40.5596L167.318 35.0771L155.034 44.9706L156.961 74.047C157.24 78.2358 160.82 81.4329 165.015 81.2392C168.999 81.0568 172.191 77.8596 172.362 73.8703Z" fill="#B77153"/>
<path d="M178.433 51.4049C178.336 51.5132 177.743 51.0117 176.894 50.9832C176.044 50.9376 175.412 51.3822 175.32 51.2682C175.275 51.2169 175.378 51.0231 175.651 50.8236C175.919 50.6242 176.381 50.4361 176.911 50.4589C177.441 50.4817 177.885 50.7097 178.136 50.9319C178.398 51.1542 178.484 51.3594 178.433 51.4049Z" fill="#263238"/>
<path d="M169.016 51.4049C168.914 51.5132 168.326 51.0117 167.477 50.9832C166.628 50.9376 165.995 51.3822 165.904 51.2682C165.858 51.2169 165.961 51.0231 166.24 50.8236C166.508 50.6242 166.97 50.4361 167.5 50.4589C168.03 50.4817 168.475 50.7097 168.725 50.9319C168.982 51.1542 169.067 51.3594 169.016 51.4049Z" fill="#263238"/>
<path d="M172.208 57.7875C172.202 57.7362 172.732 57.6564 173.593 57.5766C173.81 57.5595 174.015 57.5253 174.055 57.3658C174.106 57.2005 174.021 56.944 173.918 56.6705C173.724 56.1006 173.519 55.5022 173.302 54.8753C172.447 52.3221 171.838 50.2192 171.934 50.185C172.031 50.1508 172.801 52.1967 173.65 54.7499C173.855 55.3825 174.049 55.9809 174.237 56.5565C174.317 56.8243 174.454 57.1264 174.334 57.474C174.271 57.645 174.112 57.7647 173.969 57.7989C173.827 57.8388 173.707 57.8388 173.599 57.8388C172.75 57.8559 172.214 57.8388 172.208 57.7875Z" fill="#263238"/>
<path d="M172.63 68.5874C172.63 68.5874 168.481 68.7071 164.417 65.8975C164.417 65.8975 166.349 70.508 172.522 70.1375L172.63 68.5874Z" fill="#995037"/>
<path d="M163.818 35.4362C161.794 38.2344 161.84 42.3605 163.932 45.1131C164.855 46.327 166.246 47.3073 167.768 47.256C169.29 47.199 170.76 45.7571 170.436 44.2697C169.843 46.1333 171.427 48.3388 173.377 48.373C175.332 48.4072 176.991 46.2586 176.466 44.378C176.62 45.0562 176.785 45.7457 177.173 46.3213C177.561 46.8969 178.233 47.3301 178.923 47.2389C179.875 47.1135 180.433 46.0877 180.65 45.153C181.305 42.3491 180.268 39.2717 178.21 37.2599C176.153 35.2481 173.172 34.2907 170.299 34.4845C167.426 34.6782 164.684 35.9719 162.53 37.8811" fill="#263238"/>
<path d="M164.621 37.6641C165.362 39.4706 165.915 41.3912 165.898 43.346C165.875 45.3007 165.231 47.3011 163.846 48.6803C162.461 50.0594 160.278 50.692 158.46 49.9739C158.893 51.6836 158.739 53.6213 157.673 55.029C156.607 56.4366 154.527 57.1091 152.976 56.2599C151.58 55.4963 150.97 53.798 150.782 52.2136C150.314 48.3839 151.671 44.3718 154.367 41.6078C157.057 38.8438 161.036 37.3848 164.878 37.7552" fill="#263238"/>
<path d="M156.79 52.7493C155.946 52.2307 154.795 52.6581 154.122 53.3876C153.068 54.5388 152.885 56.3967 153.695 57.7302C154.504 59.0638 156.237 59.7648 157.747 59.3601" fill="#B77153"/>
<path d="M156.596 57.468C156.596 57.5022 156.317 57.5421 155.878 57.4225C155.462 57.3085 154.823 56.9722 154.578 56.2599C154.458 55.9179 154.481 55.5418 154.612 55.2511C154.743 54.9605 154.949 54.7553 155.137 54.6299C155.524 54.3735 155.826 54.3792 155.826 54.4134C155.838 54.459 155.576 54.5331 155.268 54.8009C154.96 55.0517 154.652 55.5874 154.863 56.1687C155.057 56.7443 155.576 57.0691 155.952 57.2287C156.328 57.3826 156.596 57.4168 156.596 57.468Z" fill="#995037"/>
<path d="M169.541 48.7599C169.461 49.005 168.538 48.9138 167.432 48.9651C166.332 48.9993 165.414 49.1589 165.317 48.9195C165.214 48.6972 166.115 48.0988 167.398 48.0589C168.686 48.002 169.626 48.532 169.541 48.7599Z" fill="#263238"/>
<path d="M178.41 48.5841C178.313 48.6696 178.125 48.6126 177.902 48.5613C177.674 48.5043 177.464 48.4758 177.127 48.51C176.797 48.5442 176.432 48.6012 176.153 48.5955C175.873 48.5955 175.679 48.5328 175.645 48.4131C175.611 48.2934 175.736 48.1339 175.97 47.98C176.21 47.8261 176.557 47.6551 177.047 47.6038C177.538 47.5355 178.073 47.7691 178.273 48.0313C178.49 48.2934 178.501 48.51 178.41 48.5841Z" fill="#263238"/>
<path d="M170.738 59.4116C171.217 59.1266 171.815 58.9956 172.339 59.1836C172.864 59.3774 173.257 59.9473 173.132 60.4887C173.063 60.7851 172.858 61.0358 172.619 61.2182C172.248 61.4974 171.758 61.6399 171.296 61.543C170.84 61.4461 170.43 61.0985 170.316 60.6483C170.196 60.198 170.413 59.668 170.829 59.4629" fill="#995037"/>
<path d="M173.844 60.0844C173.861 60.1186 173.645 60.2611 173.234 60.3523C172.83 60.4435 172.225 60.4435 171.627 60.1927C171.028 59.942 170.607 59.5145 170.384 59.1612C170.162 58.8079 170.111 58.5514 170.145 58.54C170.185 58.5229 170.305 58.7395 170.555 59.0358C170.806 59.3265 171.205 59.6912 171.741 59.9135C172.277 60.1357 172.818 60.1699 173.2 60.1357C173.588 60.1129 173.827 60.0445 173.844 60.0844Z" fill="#263238"/>
<path d="M160.99 63.1043C160.956 63.1043 160.979 62.6655 160.78 61.9132C160.586 61.1781 160.084 60.0952 158.973 59.2632C158.425 58.8586 157.73 58.5109 156.938 58.3741C156.145 58.2431 155.256 58.2716 154.413 58.5964C153.985 58.7446 153.575 58.9725 153.199 59.2518C152.817 59.531 152.469 59.873 152.19 60.2719C151.603 61.0584 151.272 62.0671 151.261 63.1043C151.272 64.1415 151.603 65.1503 152.19 65.9367C152.475 66.3357 152.822 66.6776 153.199 66.9569C153.575 67.2418 153.985 67.4641 154.413 67.6122C155.256 67.9371 156.145 67.9656 156.938 67.8345C157.73 67.6977 158.425 67.3558 158.973 66.9455C160.084 66.1134 160.58 65.0306 160.78 64.2954C160.979 63.5431 160.956 63.1043 160.99 63.1043C161.002 63.1043 161.008 63.2126 161.008 63.4235C161.013 63.6286 160.985 63.9421 160.894 64.3296C160.728 65.0933 160.244 66.2274 159.104 67.1221C158.539 67.5553 157.821 67.9314 156.983 68.0853C156.157 68.2334 155.216 68.2163 154.316 67.8801C153.865 67.7262 153.427 67.4926 153.028 67.1962C152.623 66.9056 152.252 66.5408 151.95 66.1191C151.323 65.287 150.964 64.2156 150.958 63.11C150.97 62.0044 151.323 60.933 151.95 60.1009C152.252 59.6792 152.623 59.3145 153.028 59.0238C153.427 58.7275 153.865 58.4938 154.316 58.3399C155.216 58.0037 156.151 57.9866 156.983 58.1348C157.816 58.2887 158.539 58.6648 159.104 59.0979C160.244 59.9927 160.728 61.1268 160.894 61.8904C160.979 62.278 161.008 62.5857 161.008 62.7966C161.008 62.996 161.002 63.1043 160.99 63.1043Z" fill="#E8505B"/>
<path d="M178.41 34.7748C178.41 34.7691 178.467 34.7805 178.57 34.8147C178.666 34.8546 178.815 34.923 178.969 35.0712C179.271 35.3447 179.613 35.9488 179.476 36.7353C179.35 37.5275 178.552 38.2854 177.504 38.4849C176.438 38.7072 175.241 38.3082 174.163 37.687L172.989 37.0088L174.283 37.4306C174.728 37.5731 175.047 37.9891 175.155 38.4279C175.275 38.8724 175.224 39.3682 174.973 39.79C174.716 40.2117 174.283 40.4852 173.816 40.6106C173.348 40.736 172.841 40.7132 172.374 40.5764C171.217 40.2174 170.464 39.2771 169.894 38.4336L169.068 37.2254L170.117 38.2455C170.715 38.8268 170.846 39.6931 170.681 40.3998C170.521 41.1235 170.02 41.7276 169.415 42.0069C168.196 42.5882 166.89 42.2234 166.172 41.6136C165.42 40.9982 165.101 40.2687 164.947 39.7843C164.867 39.5392 164.833 39.3397 164.81 39.2087C164.793 39.0719 164.787 39.0035 164.798 39.0035C164.821 38.9978 164.861 39.2771 165.044 39.7501C165.226 40.2117 165.568 40.907 166.292 41.4655C166.982 42.024 168.207 42.326 169.301 41.7846C169.843 41.5225 170.27 40.9925 170.413 40.3428C170.555 39.7045 170.424 38.9465 169.917 38.4621L170.139 38.274C170.704 39.1004 171.433 39.978 172.465 40.2915C173.297 40.5479 174.306 40.3314 174.728 39.6418C175.144 38.9693 174.893 37.9264 174.203 37.6984L174.317 37.442C175.366 38.0575 176.495 38.4393 177.475 38.2512C178.45 38.086 179.191 37.4078 179.328 36.7011C179.476 35.9887 179.185 35.4131 178.923 35.1396C178.627 34.8432 178.393 34.7976 178.41 34.7748Z" fill="#455A64"/>
<path d="M163.225 44.9537C163.231 44.9594 163.202 44.9936 163.151 45.062C163.1 45.1303 163.009 45.2272 162.883 45.3469C162.632 45.5749 162.222 45.8883 161.612 46.1049C161.008 46.3157 160.181 46.424 159.309 46.1448C158.449 45.8712 157.548 45.2158 157.046 44.19L157.286 44.1558C157.081 45.478 155.998 46.8115 154.43 47.1763C152.88 47.5296 151.01 46.709 150.28 45.0847C149.636 43.6258 150.058 41.9047 151.078 40.9188L151.278 41.1353C150.583 41.7166 149.705 41.9959 148.878 42.0016C148.052 42.0187 147.259 41.785 146.627 41.3861C145.994 40.9872 145.521 40.4116 145.282 39.8018C145.031 39.1977 144.962 38.5822 145.002 38.0408C145.082 36.9466 145.555 36.1601 145.937 35.727C146.336 35.2881 146.632 35.1514 146.632 35.1514C146.65 35.1742 146.376 35.3451 146.011 35.7897C145.658 36.2342 145.23 37.0035 145.185 38.0522C145.162 38.5708 145.242 39.1521 145.487 39.7163C145.726 40.2805 146.171 40.8048 146.764 41.1695C147.362 41.5343 148.103 41.7394 148.878 41.7223C149.648 41.7109 150.457 41.4431 151.09 40.9074L151.289 41.1239C150.36 42.0244 149.973 43.6258 150.565 44.9537C151.221 46.4354 152.959 47.2105 154.373 46.8856C155.809 46.5665 156.841 45.3298 157.041 44.1102L157.109 43.7113L157.28 44.076C157.73 45.0392 158.568 45.6717 159.378 45.9453C160.198 46.2303 160.985 46.1448 161.572 45.9624C162.171 45.78 162.581 45.4951 162.843 45.2842C163.088 45.079 163.208 44.9423 163.225 44.9537Z" fill="#455A64"/>
<path d="M151.916 55.0924C151.922 55.1038 151.768 55.2348 151.426 55.383C151.084 55.5312 150.543 55.6851 149.847 55.6281C149.169 55.5768 148.314 55.2804 147.67 54.5681C147.037 53.8728 146.615 52.7843 146.815 51.6445L147.077 51.7584C146.547 52.4537 145.823 53.092 144.934 53.508C144.273 53.8158 143.554 53.9754 142.859 53.9526C142.164 53.9298 141.502 53.7417 140.949 53.4283C139.815 52.8242 139.177 51.6901 139.131 50.7326C139.057 49.7638 139.405 49.0115 139.718 48.5955C139.884 48.3846 140.032 48.2422 140.146 48.1624C140.26 48.0826 140.322 48.0427 140.328 48.0484C140.351 48.0712 140.106 48.2422 139.821 48.6639C139.547 49.0856 139.257 49.8094 139.353 50.7155C139.422 51.6103 140.02 52.6304 141.092 53.1889C142.135 53.7702 143.566 53.8443 144.82 53.2402C145.652 52.8527 146.347 52.2486 146.855 51.5932L147.225 51.1145L147.117 51.7072C146.929 52.7387 147.299 53.7531 147.875 54.4085C148.456 55.081 149.237 55.3773 149.881 55.4514C150.537 55.5312 151.061 55.4115 151.403 55.2975C151.734 55.1779 151.905 55.0753 151.916 55.0924Z" fill="#455A64"/>
<path d="M184.195 42.7483C184.224 42.7369 184.366 43.1358 184.321 43.8026C184.281 44.458 183.996 45.3926 183.283 46.1392C182.565 46.8858 181.647 47.2106 180.992 47.2847C180.331 47.3588 179.926 47.2391 179.932 47.2049C179.937 47.1536 180.336 47.1992 180.958 47.0738C181.568 46.9542 182.406 46.6179 183.067 45.934C183.722 45.2445 184.019 44.3953 184.116 43.7798C184.207 43.1529 184.144 42.754 184.195 42.7483Z" fill="#455A64"/>
<path d="M187.684 48.715C187.701 48.7093 187.775 48.8575 187.826 49.1481C187.872 49.4388 187.894 49.8833 187.706 50.3962C187.53 50.892 187.085 51.5018 186.327 51.6671C185.962 51.7469 185.557 51.7241 185.176 51.5702C184.794 51.422 184.435 51.1143 184.269 50.6869L184.554 50.59C184.6 50.7666 184.634 50.9547 184.623 51.1485C184.594 52.1002 183.956 52.8981 183.192 53.1773C182.81 53.3198 182.4 53.3198 182.058 53.2229C181.71 53.126 181.425 52.9494 181.203 52.7499C180.747 52.351 180.564 51.878 180.513 51.5531C180.462 51.2283 180.513 51.0459 180.53 51.0459C180.559 51.0459 180.547 51.2283 180.633 51.5246C180.712 51.821 180.918 52.2427 181.345 52.5789C181.756 52.9209 182.44 53.1659 183.095 52.9038C183.739 52.653 184.303 51.9349 184.321 51.1314C184.326 50.9661 184.298 50.8065 184.264 50.6584L184.549 50.5615C184.822 51.2511 185.66 51.5132 186.276 51.3821C186.914 51.2682 187.33 50.7552 187.518 50.305C187.712 49.8434 187.729 49.4217 187.718 49.1424C187.701 48.8746 187.661 48.7207 187.684 48.715Z" fill="#455A64"/>
<path d="M170.299 57.178C170.338 57.1837 170.361 57.309 170.31 57.5028C170.259 57.6966 170.122 57.9473 169.888 58.1411C169.654 58.3349 169.381 58.426 169.181 58.4374C168.982 58.4488 168.862 58.4032 168.868 58.3634C168.868 58.2779 169.307 58.238 169.694 57.9017C170.093 57.5883 170.213 57.1666 170.299 57.178Z" fill="#263238"/>
<path d="M306.158 220.631C304.733 222.666 301.968 221.993 300.686 220.751C299.403 219.509 298.862 217.713 298.366 215.998C297.237 212.083 296.103 207.974 296.941 203.985C297.192 202.793 297.636 201.602 298.474 200.719C299.312 199.836 300.6 199.306 301.78 199.619C303.177 199.99 304.043 201.352 304.67 202.651C306.511 206.469 307.486 210.704 307.503 214.944C307.508 216.921 307.275 219.001 306.158 220.631Z" fill="#3E8A64"/>
<g opacity="0.2">
<path opacity="0.2" d="M306.158 220.631C304.733 222.666 301.968 221.993 300.686 220.751C299.403 219.509 298.862 217.713 298.366 215.998C297.237 212.083 296.103 207.974 296.941 203.985C297.192 202.793 297.636 201.602 298.474 200.719C299.312 199.836 300.6 199.306 301.78 199.619C303.177 199.99 304.043 201.352 304.67 202.651C306.511 206.469 307.486 210.704 307.503 214.944C307.508 216.921 307.275 219.001 306.158 220.631Z" fill="black"/>
</g>
<path d="M300.828 230.924C298.503 229.721 295.761 229.567 293.179 229.995C291.794 230.223 290.346 230.639 289.4 231.682C288.454 232.725 288.277 234.56 289.36 235.454C290.004 235.99 290.905 236.07 291.742 236.059C293.766 236.036 296.012 235.677 297.625 236.896C298.548 237.592 299.158 238.743 300.264 239.085C301.341 239.421 302.561 238.783 303.131 237.808C303.701 236.834 303.724 235.62 303.456 234.52C303.45 234.526 303.171 232.132 300.828 230.924Z" fill="#3E8A64"/>
<path d="M310.068 223.549C308.523 221.714 308.233 219.041 308.917 216.744C309.606 214.448 311.157 212.493 312.947 210.897C315.044 209.028 317.512 207.569 320.163 206.64C321.206 206.275 322.306 205.985 323.406 206.087C324.506 206.19 325.618 206.754 326.131 207.734C326.889 209.182 326.165 210.937 325.372 212.373C323.987 214.898 322.397 217.314 320.63 219.594C319.211 221.423 317.581 223.23 315.415 224.062C313.249 224.888 310.997 224.791 309.851 223.293" fill="#3E8A64"/>
<path d="M306.255 251.286C306.226 251.286 306.186 250.961 306.124 250.363C306.061 249.69 305.976 248.847 305.879 247.844C305.759 246.784 305.605 245.524 305.314 244.145C305.018 242.778 304.562 241.29 303.969 239.786C303.359 238.287 302.613 236.925 301.74 235.836C300.874 234.742 299.871 233.95 298.925 233.494C297.984 233.027 297.135 232.838 296.553 232.753C295.966 232.69 295.636 232.645 295.636 232.622C295.636 232.593 295.966 232.593 296.571 232.605C297.169 232.645 298.053 232.799 299.044 233.249C300.042 233.693 301.108 234.497 302.014 235.608C302.926 236.719 303.701 238.11 304.323 239.637C304.921 241.17 305.377 242.669 305.656 244.071C305.936 245.467 306.067 246.744 306.146 247.815C306.226 248.887 306.255 249.753 306.272 250.352C306.289 250.956 306.283 251.286 306.255 251.286Z" fill="#263238"/>
<path d="M306.083 249.349C306.072 249.349 306.061 249.2 306.061 248.921C306.061 248.602 306.061 248.192 306.066 247.696C306.072 246.63 306.066 245.091 306.009 243.194C305.912 239.392 305.588 234.149 304.955 228.382C304.316 222.615 303.473 217.428 302.703 213.701C302.521 212.767 302.339 211.929 302.168 211.194C302.002 210.459 301.865 209.82 301.729 209.307C301.615 208.823 301.518 208.43 301.444 208.116C301.381 207.843 301.358 207.695 301.37 207.695C301.381 207.689 301.432 207.831 301.518 208.093C301.609 208.401 301.729 208.789 301.871 209.267C302.031 209.775 302.19 210.407 302.373 211.142C302.567 211.872 302.766 212.71 302.966 213.644C303.803 217.36 304.693 222.558 305.331 228.336C305.964 234.115 306.249 239.375 306.277 243.182C306.3 245.086 306.26 246.63 306.209 247.69C306.18 248.186 306.152 248.591 306.135 248.915C306.112 249.2 306.095 249.349 306.083 249.349Z" fill="#263238"/>
<path d="M306.055 239.198C306.027 239.198 306.033 238.743 306.067 237.916C306.112 237.096 306.226 235.904 306.46 234.451C306.705 232.998 307.047 231.271 307.589 229.402C308.102 227.521 308.808 225.492 309.703 223.424C311.453 219.269 313.836 215.867 315.911 213.764C316.395 213.205 316.937 212.801 317.37 212.407C317.592 212.219 317.792 212.031 317.991 211.877C318.196 211.735 318.384 211.61 318.555 211.49C319.239 211.023 319.621 210.777 319.633 210.8C319.695 210.886 318.105 211.82 316.099 213.952C314.104 216.083 311.79 219.457 310.051 223.577C309.162 225.623 308.455 227.635 307.925 229.499C307.372 231.357 307.002 233.061 306.722 234.502C306.46 235.944 306.306 237.118 306.215 237.933C306.135 238.748 306.084 239.204 306.055 239.198Z" fill="#263238"/>
<path d="M105.855 10.2468C105.855 10.2525 105.718 10.2696 105.461 10.2981C105.176 10.3209 104.794 10.3551 104.298 10.395C103.785 10.4121 103.164 10.5261 102.429 10.6686C102.064 10.7483 101.659 10.7825 101.249 10.9079C100.833 11.0276 100.394 11.153 99.9323 11.2897C98.0969 11.8938 95.8853 12.8399 93.6737 14.4812C91.4621 16.1111 89.2619 18.4306 87.5576 21.4454C86.6627 22.9271 86.0186 24.6368 85.4429 26.4263C84.9812 28.25 84.5708 30.1877 84.5651 32.2222C84.4853 33.2366 84.5993 34.2682 84.6563 35.3168C84.6905 35.8411 84.8102 36.3597 84.8786 36.884C84.9584 37.414 85.0382 37.944 85.1978 38.4626C85.6538 40.5827 86.543 42.6514 87.6602 44.6347C89.8946 48.6126 93.6053 52.0206 98.1653 53.964C100.445 54.9385 102.965 55.4514 105.518 55.5255C108.078 55.6566 110.688 55.2177 113.162 54.3344L113.909 54.0494L114.006 54.0095L114.097 54.0551C117.79 55.8788 121.416 57.6683 124.927 59.4008L124.608 59.6801C123.416 56.1239 122.265 52.676 121.153 49.3706L121.113 49.2452L121.205 49.1483C123.889 46.4014 125.742 43.0788 126.751 39.6879C127.765 36.2856 127.902 32.832 127.458 29.6748C127.013 26.5061 125.941 23.6395 124.533 21.2288C123.126 18.8124 121.381 16.852 119.603 15.3303C117.802 13.8201 115.938 12.8 114.273 12.0249C112.569 11.3353 111.047 10.8965 109.788 10.6686C109.155 10.566 108.596 10.4805 108.112 10.4007C107.627 10.3722 107.217 10.3494 106.875 10.3266C106.556 10.3038 106.305 10.2867 106.117 10.2753C105.946 10.2639 105.855 10.2525 105.855 10.2468C105.855 10.2411 105.94 10.2354 106.111 10.2411C106.299 10.2468 106.55 10.2468 106.869 10.2525C107.211 10.2639 107.627 10.2753 108.112 10.2867C108.602 10.3551 109.172 10.4292 109.805 10.5204C111.076 10.7255 112.615 11.1473 114.348 11.8255C116.04 12.5891 117.933 13.5979 119.768 15.1195C121.587 16.6468 123.359 18.6187 124.807 21.0636C126.249 23.5027 127.355 26.4092 127.822 29.6235C128.29 32.832 128.159 36.3426 127.138 39.8076C126.124 43.2612 124.243 46.6521 121.512 49.4617L121.564 49.2395C122.675 52.5449 123.832 55.9871 125.029 59.5433L125.206 60.0619L124.716 59.8168C121.205 58.0843 117.579 56.3006 113.88 54.4769L114.068 54.4826L113.304 54.7732C110.779 55.6737 108.106 56.1239 105.49 55.9871C102.879 55.9073 100.308 55.383 97.9772 54.38C93.3203 52.3853 89.5412 48.9032 87.2726 44.8455C86.1383 42.8224 85.2434 40.7138 84.7874 38.5595C84.6335 38.0295 84.548 37.4881 84.4682 36.9524C84.3941 36.4167 84.2801 35.8867 84.2459 35.3567C84.1946 34.291 84.0806 33.2423 84.1661 32.2108C84.1832 30.1421 84.605 28.1759 85.0838 26.3237C85.6766 24.5058 86.3378 22.779 87.2555 21.2801C88.9997 18.2311 91.2512 15.9003 93.5027 14.2703C95.7599 12.629 98 11.6944 99.8639 11.1131C100.337 10.982 100.782 10.8623 101.198 10.7483C101.614 10.6287 102.024 10.6002 102.389 10.5261C103.13 10.4007 103.757 10.2981 104.276 10.2981C104.772 10.2753 105.159 10.2582 105.444 10.2468C105.723 10.2354 105.855 10.2354 105.855 10.2468Z" fill="#3E8A64"/>
<path d="M110.95 30.1191L109.372 30.1362L105.872 25.3775L105.838 22.2259C105.838 22.2259 103.398 22.1063 103.729 26.2267C104.065 30.347 103.74 29.2984 103.74 29.2984C103.74 29.2984 98.5587 29.3782 98.1369 29.8341C97.8291 30.1647 97.7436 35.3109 97.7208 38.0977C97.7094 39.4997 98.5872 40.799 99.8982 41.1182C100.086 41.1638 100.274 41.1866 100.457 41.1866C101.751 41.1695 108.334 40.0468 108.334 40.0468L111.059 40.0183L110.95 30.1191Z" fill="#3E8A64"/>
<path d="M115.459 29.207L114.61 40.0067L111.908 40.0409L111.789 29.4635L115.459 29.207Z" fill="#3E8A64"/>
</svg>
