<svg width="65" height="66" viewBox="0 0 65 66" fill="none" xmlns="http://www.w3.org/2000/svg">
<g filter="url(#filter0_ii_286_2575)">
<path d="M32.233 0.669922C14.4269 0.669922 0 15.0968 0 32.9029C0 50.7091 14.4269 65.1359 32.233 65.1359C50.0392 65.1359 64.466 50.7091 64.466 32.9029C64.466 15.0968 50.0392 0.669922 32.233 0.669922ZM17.6762 30.8234C17.6762 29.6146 18.2091 28.5489 19.0409 27.782L15.0117 26.5733C13.907 26.2484 13.2831 25.0786 13.621 23.9869C13.946 22.8821 15.1027 22.2712 16.2075 22.5962L26.6052 25.7155C27.71 26.0404 28.3339 27.2102 27.9959 28.3019C27.723 29.1987 26.9042 29.7836 26.0074 29.7836C25.9424 29.7836 25.8644 29.7576 25.7864 29.7576C25.8774 30.1085 26.0074 30.4465 26.0074 30.8234C26.0074 33.1239 24.1488 34.9825 21.8483 34.9825C19.5478 34.9825 17.6762 33.1239 17.6762 30.8234ZM39.5114 50.865C35.8982 46.524 28.5678 46.524 24.9416 50.865C23.187 52.9836 19.9767 50.3192 21.7443 48.2006C24.3437 45.0813 28.1649 43.2877 32.22 43.2877C36.2751 43.2877 40.0963 45.0813 42.6957 48.2006C44.4894 50.3451 41.2531 52.9576 39.5114 50.865ZM49.4673 26.5733L45.4381 27.782C46.257 28.5359 46.8029 29.6146 46.8029 30.8234C46.8029 33.1239 44.9443 34.9825 42.6438 34.9825C40.3433 34.9825 38.4847 33.1239 38.4847 30.8234C38.4847 30.4465 38.6016 30.0955 38.7056 29.7576C38.6276 29.7706 38.5626 29.7836 38.4847 29.7836C37.5878 29.7836 36.769 29.1987 36.4961 28.3019C36.1712 27.1972 36.795 26.0404 37.8868 25.7155L48.2845 22.5962C49.3763 22.2712 50.546 22.8951 50.871 23.9869C51.1959 25.0916 50.572 26.2484 49.4673 26.5733Z" fill="#E22900"/>
</g>
<defs>
<filter id="filter0_ii_286_2575" x="0" y="0.669922" width="67.4658" height="68.4658" filterUnits="userSpaceOnUse" color-interpolation-filters="sRGB">
<feFlood flood-opacity="0" result="BackgroundImageFix"/>
<feBlend mode="normal" in="SourceGraphic" in2="BackgroundImageFix" result="shape"/>
<feColorMatrix in="SourceAlpha" type="matrix" values="0 0 0 0 0 0 0 0 0 0 0 0 0 0 0 0 0 0 127 0" result="hardAlpha"/>
<feOffset dx="3" dy="4"/>
<feGaussianBlur stdDeviation="2"/>
<feComposite in2="hardAlpha" operator="arithmetic" k2="-1" k3="1"/>
<feColorMatrix type="matrix" values="0 0 0 0 0 0 0 0 0 0 0 0 0 0 0 0 0 0 0.25 0"/>
<feBlend mode="normal" in2="shape" result="effect1_innerShadow_286_2575"/>
<feColorMatrix in="SourceAlpha" type="matrix" values="0 0 0 0 0 0 0 0 0 0 0 0 0 0 0 0 0 0 127 0" result="hardAlpha"/>
<feOffset dy="4"/>
<feGaussianBlur stdDeviation="2"/>
<feComposite in2="hardAlpha" operator="arithmetic" k2="-1" k3="1"/>
<feColorMatrix type="matrix" values="0 0 0 0 0 0 0 0 0 0 0 0 0 0 0 0 0 0 0.25 0"/>
<feBlend mode="normal" in2="effect1_innerShadow_286_2575" result="effect2_innerShadow_286_2575"/>
</filter>
</defs>
</svg>
