<svg width="65" height="66" viewBox="0 0 65 66" fill="none" xmlns="http://www.w3.org/2000/svg">
<g filter="url(#filter0_ii_286_2574)">
<path d="M0 32.9029C0 15.0992 14.4293 0.669922 32.233 0.669922C50.0367 0.669922 64.466 15.0992 64.466 32.9029C64.466 50.7066 50.0367 65.1359 32.233 65.1359C14.4293 65.1359 0 50.7066 0 32.9029ZM20.6619 41.6537C19.9316 40.8101 18.6599 40.722 17.8163 41.4522C16.9727 42.1825 16.8846 43.4542 17.6148 44.2978C20.41 47.5211 25.2954 51.034 32.1197 51.034C39.1707 51.034 44.0434 47.5211 46.8512 44.2978C47.5815 43.4542 47.4933 42.1825 46.6497 41.4522C45.8061 40.722 44.5344 40.8101 43.8042 41.6537C41.5378 44.26 37.6975 47.0049 32.1197 47.0049C26.7685 47.0049 22.9157 44.26 20.6619 41.6537ZM28.5187 29.8307C28.9342 29.6922 29.2112 29.3019 29.2112 28.8738C29.2112 26.62 28.3676 24.3914 27.1211 22.7294C25.8871 21.0926 24.1118 19.8083 22.1602 19.8083C20.2086 19.8083 18.4333 21.0926 17.1993 22.7294C15.9528 24.3914 15.1092 26.62 15.1092 28.8738C15.1092 29.3019 15.3862 29.6922 15.8017 29.8307C16.2046 29.9692 16.6579 29.8307 16.9223 29.4782L16.9475 29.4404C16.9727 29.4152 16.8846 29.3774 17.0357 29.3271C17.0105 29.2264 17.2371 29.0879 17.3882 28.9116C17.703 28.5464 18.1437 28.0806 18.6725 27.5014C19.7805 26.6326 21.0522 25.852 22.1602 25.852C23.2682 25.852 24.5399 26.6326 25.6479 27.5014C26.1767 28.0806 26.6174 28.5464 26.9322 28.9116C27.0833 29.0879 27.1966 29.2264 27.2847 29.3271C27.3225 29.3774 27.3477 29.4152 27.3729 29.4404L27.3981 29.4782C27.6625 29.8307 28.1157 29.9692 28.5187 29.8307ZM47.5437 29.4782C47.8081 29.8307 48.2614 29.9692 48.6643 29.8307C49.0798 29.6922 49.3568 29.3019 49.3568 28.8738C49.3568 26.62 48.5132 24.3914 47.2667 22.7294C46.0328 21.0926 44.2574 19.8083 42.3058 19.8083C40.3542 19.8083 38.5789 21.0926 37.345 22.7294C36.0985 24.3914 35.2549 26.62 35.2549 28.8738C35.2549 29.3019 35.5319 29.6922 35.9474 29.8307C36.3503 29.9692 36.8035 29.8307 37.068 29.4782L37.0931 29.4404C37.1183 29.4152 37.0302 29.3774 37.1813 29.3271C37.1561 29.2264 37.3827 29.0879 37.5338 28.9116C37.8486 28.5464 38.2893 28.0806 38.8181 27.5014C39.9261 26.6326 41.1978 25.852 42.3058 25.852C43.4138 25.852 44.6855 26.6326 45.7935 27.5014C46.3224 28.0806 46.763 28.5464 47.0778 28.9116C47.2289 29.0879 47.3422 29.2264 47.4304 29.3271C47.4681 29.3774 47.4933 29.4152 47.5185 29.4404L47.5437 29.4782Z" fill="#3AE80E"/>
</g>
<defs>
<filter id="filter0_ii_286_2574" x="0" y="0.669922" width="67.4658" height="68.4658" filterUnits="userSpaceOnUse" color-interpolation-filters="sRGB">
<feFlood flood-opacity="0" result="BackgroundImageFix"/>
<feBlend mode="normal" in="SourceGraphic" in2="BackgroundImageFix" result="shape"/>
<feColorMatrix in="SourceAlpha" type="matrix" values="0 0 0 0 0 0 0 0 0 0 0 0 0 0 0 0 0 0 127 0" result="hardAlpha"/>
<feOffset dx="3" dy="4"/>
<feGaussianBlur stdDeviation="2"/>
<feComposite in2="hardAlpha" operator="arithmetic" k2="-1" k3="1"/>
<feColorMatrix type="matrix" values="0 0 0 0 0 0 0 0 0 0 0 0 0 0 0 0 0 0 0.25 0"/>
<feBlend mode="normal" in2="shape" result="effect1_innerShadow_286_2574"/>
<feColorMatrix in="SourceAlpha" type="matrix" values="0 0 0 0 0 0 0 0 0 0 0 0 0 0 0 0 0 0 127 0" result="hardAlpha"/>
<feOffset dy="4"/>
<feGaussianBlur stdDeviation="2"/>
<feComposite in2="hardAlpha" operator="arithmetic" k2="-1" k3="1"/>
<feColorMatrix type="matrix" values="0 0 0 0 0 0 0 0 0 0 0 0 0 0 0 0 0 0 0.25 0"/>
<feBlend mode="normal" in2="effect1_innerShadow_286_2574" result="effect2_innerShadow_286_2574"/>
</filter>
</defs>
</svg>
